<?xml version="1.0" encoding="utf-8"?>
<!-- Generator: Adobe Illustrator 21.0.2, SVG Export Plug-In . SVG Version: 6.00 Build 0)  -->
<svg version="1.1" id="Layer_1" xmlns="http://www.w3.org/2000/svg" xmlns:xlink="http://www.w3.org/1999/xlink" x="0px" y="0px"
	 viewBox="0 0 600 767" style="enable-background:new 0 0 600 767;" xml:space="preserve">
<style type="text/css">
	.st0{fill:url(#SVGID_1_);}
	.st1{fill:url(#SVGID_2_);}
	.st2{fill:url(#SVGID_3_);}
	.st3{fill:url(#SVGID_4_);}
	.st4{fill:url(#SVGID_5_);}
	.st5{fill:url(#SVGID_6_);}
	.st6{fill:url(#SVGID_7_);}
	.st7{fill:url(#SVGID_8_);}
	.st8{fill:url(#SVGID_9_);}
	.st9{fill:url(#SVGID_10_);}
	.st10{fill:url(#SVGID_11_);}
	.st11{fill:url(#SVGID_12_);}
	.st12{fill:url(#SVGID_13_);}
	.st13{fill:url(#SVGID_14_);}
	.st14{fill:url(#SVGID_15_);}
	.st15{fill:url(#SVGID_16_);}
	.st16{fill:url(#SVGID_17_);}
	.st17{fill:url(#SVGID_18_);}
	.st18{fill:url(#SVGID_19_);}
	.st19{fill:url(#SVGID_20_);}
	.st20{fill:url(#SVGID_21_);}
	.st21{fill:url(#SVGID_22_);}
	.st22{fill:url(#SVGID_23_);}
	.st23{fill:url(#SVGID_24_);}
	.st24{fill:url(#SVGID_25_);}
	.st25{fill:url(#SVGID_26_);}
	.st26{fill:url(#SVGID_27_);}
	.st27{fill:url(#SVGID_28_);}
	.st28{fill:url(#SVGID_29_);}
	.st29{fill:url(#SVGID_30_);}
	.st30{fill:url(#SVGID_31_);}
	.st31{fill:url(#SVGID_32_);}
	.st32{fill:url(#SVGID_33_);}
	.st33{fill:url(#SVGID_34_);}
	.st34{fill:url(#SVGID_35_);}
	.st35{fill:url(#SVGID_36_);}
	.st36{fill:url(#SVGID_37_);}
	.st37{fill:url(#SVGID_38_);}
	.st38{fill:url(#SVGID_39_);}
	.st39{fill:url(#SVGID_40_);}
	.st40{fill:url(#SVGID_41_);}
	.st41{fill:url(#SVGID_42_);}
	.st42{fill:url(#SVGID_43_);}
	.st43{fill:url(#SVGID_44_);}
	.st44{fill:url(#SVGID_45_);}
	.st45{fill:url(#SVGID_46_);}
	.st46{fill:url(#SVGID_47_);}
	.st47{fill:url(#SVGID_48_);}
	.st48{fill:url(#SVGID_49_);}
	.st49{fill:url(#SVGID_50_);}
	.st50{fill:url(#SVGID_51_);}
	.st51{fill:url(#SVGID_52_);}
	.st52{fill:url(#SVGID_53_);}
	.st53{fill:url(#SVGID_54_);}
	.st54{fill:url(#SVGID_55_);}
	.st55{fill:url(#SVGID_56_);}
	.st56{fill:url(#SVGID_57_);}
	.st57{fill:url(#SVGID_58_);}
	.st58{fill:url(#SVGID_59_);}
	.st59{fill:url(#SVGID_60_);}
	.st60{fill:url(#SVGID_61_);}
	.st61{fill:url(#SVGID_62_);}
	.st62{fill:url(#SVGID_63_);}
	.st63{fill:url(#SVGID_64_);}
	.st64{fill:url(#SVGID_65_);}
	.st65{fill:url(#SVGID_66_);}
	.st66{fill:url(#SVGID_67_);}
	.st67{fill:url(#SVGID_68_);}
	.st68{fill:url(#SVGID_69_);}
	.st69{fill:url(#SVGID_70_);}
	.st70{fill:url(#SVGID_71_);}
	.st71{fill:url(#SVGID_72_);}
	.st72{fill:url(#SVGID_73_);}
	.st73{fill:url(#SVGID_74_);}
	.st74{fill:url(#SVGID_75_);}
	.st75{fill:url(#SVGID_76_);}
	.st76{fill:url(#SVGID_77_);}
	.st77{fill:url(#SVGID_78_);}
	.st78{fill:url(#SVGID_79_);}
	.st79{fill:url(#SVGID_80_);}
	.st80{fill:url(#SVGID_81_);}
	.st81{fill:url(#SVGID_82_);}
	.st82{fill:url(#SVGID_83_);}
	.st83{fill:url(#SVGID_84_);}
	.st84{fill:url(#SVGID_85_);}
	.st85{fill:url(#SVGID_86_);}
	.st86{fill:url(#SVGID_87_);}
	.st87{fill:url(#SVGID_88_);}
	.st88{fill:url(#SVGID_89_);}
	.st89{fill:url(#SVGID_90_);}
	.st90{fill:url(#SVGID_91_);}
	.st91{fill:url(#SVGID_92_);}
	.st92{fill:url(#SVGID_93_);}
	.st93{fill:url(#SVGID_94_);}
	.st94{fill:url(#SVGID_95_);}
	.st95{fill:url(#SVGID_96_);}
	.st96{fill:url(#SVGID_97_);}
	.st97{fill:url(#SVGID_98_);}
	.st98{fill:url(#SVGID_99_);}
	.st99{fill:url(#SVGID_100_);}
	.st100{fill:url(#SVGID_101_);}
	.st101{fill:url(#SVGID_102_);}
	.st102{fill:url(#SVGID_103_);}
	.st103{fill:url(#SVGID_104_);}
	.st104{fill:url(#SVGID_105_);}
	.st105{fill:url(#SVGID_106_);}
	.st106{fill:url(#SVGID_107_);}
	.st107{fill:url(#SVGID_108_);}
	.st108{fill:url(#SVGID_109_);}
	.st109{fill:url(#SVGID_110_);}
	.st110{fill:url(#SVGID_111_);}
	.st111{fill:url(#SVGID_112_);}
	.st112{fill:url(#SVGID_113_);}
	.st113{fill:url(#SVGID_114_);}
	.st114{fill:url(#SVGID_115_);}
	.st115{fill:url(#SVGID_116_);}
	.st116{fill:url(#SVGID_117_);}
	.st117{fill:url(#SVGID_118_);}
	.st118{fill:url(#SVGID_119_);}
	.st119{fill:url(#SVGID_120_);}
	.st120{fill:url(#SVGID_121_);}
	.st121{fill:url(#SVGID_122_);}
	.st122{fill:url(#SVGID_123_);}
	.st123{fill:url(#SVGID_124_);}
	.st124{fill:url(#SVGID_125_);}
	.st125{fill:url(#SVGID_126_);}
	.st126{fill:url(#SVGID_127_);}
	.st127{fill:none;}
	.st128{font-family:'DINAlternate-Bold';}
	.st129{font-size:15.4134px;}
</style>
<g>
	<g>
		<linearGradient id="SVGID_1_" gradientUnits="userSpaceOnUse" x1="374.6472" y1="637.1875" x2="209.0591" y2="126.2613">
			<stop  offset="0" style="stop-color:#003691"/>
			<stop  offset="0.5061" style="stop-color:#67C3F9"/>
			<stop  offset="0.6052" style="stop-color:#6AB4F2"/>
			<stop  offset="0.7963" style="stop-color:#738CDE"/>
			<stop  offset="0.9975" style="stop-color:#7D5CC6"/>
		</linearGradient>
		<path class="st0" d="M198.9,188.6c4.2,13.6,10.4,21.1,17.3,21.1c7.3,0,13.6-8.1,17.9-22.9c0.4-1.5-0.4-3.1-1.9-3.5
			c-1.5-0.4-3.1,0.4-3.5,1.9c-3.3,11.6-8.1,18.8-12.4,18.8c-4.1,0-8.7-6.6-12-17.1c-0.7-2.2-1.3-4.6-1.9-7.1
			c4.5-1.6,9.1-3.6,13.8-5.9c13.5,6.5,28.1,11.1,38.8,11.1c6.7,0,11.8-1.8,14.3-6c3.2-5.5,0.7-13.4-7-22.7c-2.2-2.6-4.8-5.3-7.7-8
			c12.2-11.2,19.3-22.8,14.8-30.7c-1.6-2.8-5.4-6.1-14.4-6.1c-12.8,0-31.5,6.4-50.1,17.2c-1.6,0.9-3.3,1.9-4.8,2.9
			c0.7-7.1,1.9-13.7,3.5-19.5l0,0c3.3-12.1,8.2-19.5,12.7-19.5c4.3,0,9,7,12.3,18.3c0.4,1.5,2,2.3,3.5,1.9c1.5-0.4,2.3-2,1.9-3.5
			C229.7,95,223.4,87,216.2,87c-7.5,0-13.9,8.4-18.1,23.7c-2,7.4-3.4,15.8-4.1,24.9c-9.2,6.2-17.1,13-22.8,19.5
			c-8.7,9.9-11.5,18.2-8.2,24c1.6,2.8,5.4,6.1,14.4,6.1c5.6,0,12.3-1.2,19.6-3.5C197.6,184.1,198.2,186.4,198.9,188.6z M258,160
			c5.9,7,8.3,13.1,6.5,16.2c-3.1,5.4-19.4,4.6-41.9-5.5c1.6-0.9,3.3-1.8,4.9-2.7c8.1-4.7,16-10.2,22.8-15.9
			C253.3,154.8,255.8,157.4,258,160z M207.7,133.7c17.5-10.1,35.6-16.4,47.3-16.4c4.9,0,8.3,1.2,9.5,3.3c1.9,3.4-0.9,9.9-7.5,17.4
			c-1.9,2.2-4.2,4.5-6.6,6.7c-5.5-4.6-11.8-9.1-18.6-13.4c-1.3-0.8-3.1-0.4-3.9,0.9c-0.8,1.3-0.4,3.1,0.9,3.9
			c6.3,3.9,12.2,8.1,17.3,12.3c-6.2,5.1-13.4,10.1-21.4,14.7c-7.9,4.6-15.9,8.3-23.4,11.1c-1.4-7.9-2.1-16.8-2.1-25.8
			c0-3.3,0.1-6.5,0.3-9.7C202.2,137,204.9,135.3,207.7,133.7z M177.5,179.5c-4.9,0-8.3-1.2-9.5-3.3c-1.9-3.4,0.9-9.9,7.5-17.4
			c4.7-5.3,10.9-10.8,18.2-16.1c-0.1,1.9-0.1,3.8-0.1,5.7c0,9.7,0.8,19.2,2.3,27.7C188.9,178.3,182.6,179.5,177.5,179.5z"/>
		<linearGradient id="SVGID_2_" gradientUnits="userSpaceOnUse" x1="347.8958" y1="645.8574" x2="182.3078" y2="134.9312">
			<stop  offset="0" style="stop-color:#003691"/>
			<stop  offset="0.5061" style="stop-color:#67C3F9"/>
			<stop  offset="0.6052" style="stop-color:#6AB4F2"/>
			<stop  offset="0.7963" style="stop-color:#738CDE"/>
			<stop  offset="0.9975" style="stop-color:#7D5CC6"/>
		</linearGradient>
		<path class="st1" d="M173,142.2c0.7,0,1.3-0.2,1.8-0.7c1.2-1,1.3-2.8,0.3-4c-6.4-7.4-9-13.7-7.1-17c2.2-3.7,10.6-4.3,22.1-1.5
			c1.5,0.4,3-0.6,3.4-2.1c0.4-1.5-0.6-3-2.1-3.4c-14.7-3.6-24.7-2.1-28.3,4.1c-3.3,5.7-0.6,13.8,7.7,23.5
			C171.4,141.8,172.2,142.2,173,142.2z"/>
		<linearGradient id="SVGID_3_" gradientUnits="userSpaceOnUse" x1="374.6469" y1="637.1876" x2="209.0588" y2="126.2614">
			<stop  offset="0" style="stop-color:#003691"/>
			<stop  offset="0.5061" style="stop-color:#67C3F9"/>
			<stop  offset="0.6052" style="stop-color:#6AB4F2"/>
			<stop  offset="0.7963" style="stop-color:#738CDE"/>
			<stop  offset="0.9975" style="stop-color:#7D5CC6"/>
		</linearGradient>
		<circle class="st2" cx="216.2" cy="148.4" r="7.3"/>
	</g>
	<g>
		<linearGradient id="SVGID_4_" gradientUnits="userSpaceOnUse" x1="278.7286" y1="407.4137" x2="265.521" y2="366.6611">
			<stop  offset="0" style="stop-color:#003691"/>
			<stop  offset="0.5061" style="stop-color:#67C3F9"/>
			<stop  offset="0.6052" style="stop-color:#6AB4F2"/>
			<stop  offset="0.7963" style="stop-color:#738CDE"/>
			<stop  offset="0.9975" style="stop-color:#7D5CC6"/>
		</linearGradient>
		<circle class="st3" cx="272.1" cy="387" r="0"/>
		<linearGradient id="SVGID_5_" gradientUnits="userSpaceOnUse" x1="386.2491" y1="633.4273" x2="220.6611" y2="122.5012">
			<stop  offset="0" style="stop-color:#003691"/>
			<stop  offset="0.5061" style="stop-color:#67C3F9"/>
			<stop  offset="0.6052" style="stop-color:#6AB4F2"/>
			<stop  offset="0.7963" style="stop-color:#738CDE"/>
			<stop  offset="0.9975" style="stop-color:#7D5CC6"/>
		</linearGradient>
		<path class="st4" d="M294.8,354.4c0.6-0.1,1.3-0.1,1.9-0.1c0,0,0.1,0,0.1,0C296.1,354.3,295.4,354.3,294.8,354.4z"/>
		<linearGradient id="SVGID_6_" gradientUnits="userSpaceOnUse" x1="280.0744" y1="411.5851" x2="264.1608" y2="362.4832">
			<stop  offset="0" style="stop-color:#003691"/>
			<stop  offset="0.5061" style="stop-color:#67C3F9"/>
			<stop  offset="0.6052" style="stop-color:#6AB4F2"/>
			<stop  offset="0.7963" style="stop-color:#738CDE"/>
			<stop  offset="0.9975" style="stop-color:#7D5CC6"/>
		</linearGradient>
		<path class="st5" d="M272.1,387C272.1,387,272.1,387,272.1,387L272.1,387C272.1,387,272.1,387,272.1,387z"/>
		<linearGradient id="SVGID_7_" gradientUnits="userSpaceOnUse" x1="273.9163" y1="392.4927" x2="270.4035" y2="381.6539">
			<stop  offset="0" style="stop-color:#003691"/>
			<stop  offset="0.5061" style="stop-color:#67C3F9"/>
			<stop  offset="0.6052" style="stop-color:#6AB4F2"/>
			<stop  offset="0.7963" style="stop-color:#738CDE"/>
			<stop  offset="0.9975" style="stop-color:#7D5CC6"/>
		</linearGradient>
		<polygon class="st6" points="272.2,387.1 272.2,387.1 272.2,387.1 		"/>
		<linearGradient id="SVGID_8_" gradientUnits="userSpaceOnUse" x1="355.2471" y1="643.4749" x2="248.2168" y2="313.2303">
			<stop  offset="0" style="stop-color:#003691"/>
			<stop  offset="0.5061" style="stop-color:#67C3F9"/>
			<stop  offset="0.6052" style="stop-color:#6AB4F2"/>
			<stop  offset="0.7963" style="stop-color:#738CDE"/>
			<stop  offset="0.9975" style="stop-color:#7D5CC6"/>
		</linearGradient>
		<path class="st7" d="M272.1,387C272.1,387,272.1,387,272.1,387C272.1,387,272.1,387.1,272.1,387
			C272.2,387.1,272.2,387.1,272.1,387C272.1,387.1,272.1,387,272.1,387z"/>
		<linearGradient id="SVGID_9_" gradientUnits="userSpaceOnUse" x1="305.4481" y1="382.8701" x2="264.3909" y2="256.1869">
			<stop  offset="0" style="stop-color:#003691"/>
			<stop  offset="0.5061" style="stop-color:#67C3F9"/>
			<stop  offset="0.6052" style="stop-color:#6AB4F2"/>
			<stop  offset="0.7963" style="stop-color:#738CDE"/>
			<stop  offset="0.9975" style="stop-color:#7D5CC6"/>
		</linearGradient>
		<path class="st8" d="M284.6,319.6C284.6,319.6,284.6,319.6,284.6,319.6c0.2-0.1,0.4-0.1,0.5-0.2
			C285,319.5,284.8,319.5,284.6,319.6z"/>
		<linearGradient id="SVGID_10_" gradientUnits="userSpaceOnUse" x1="394.7016" y1="630.6879" x2="229.1136" y2="119.7618">
			<stop  offset="0" style="stop-color:#003691"/>
			<stop  offset="0.5061" style="stop-color:#67C3F9"/>
			<stop  offset="0.6052" style="stop-color:#6AB4F2"/>
			<stop  offset="0.7963" style="stop-color:#738CDE"/>
			<stop  offset="0.9975" style="stop-color:#7D5CC6"/>
		</linearGradient>
		<path class="st9" d="M293.6,317.5c-0.2,0-0.5,0.1-0.7,0.1C293.1,317.6,293.3,317.5,293.6,317.5
			C293.6,317.5,293.6,317.5,293.6,317.5z"/>
		<linearGradient id="SVGID_11_" gradientUnits="userSpaceOnUse" x1="401.0743" y1="628.6226" x2="235.4863" y2="117.6965">
			<stop  offset="0" style="stop-color:#003691"/>
			<stop  offset="0.5061" style="stop-color:#67C3F9"/>
			<stop  offset="0.6052" style="stop-color:#6AB4F2"/>
			<stop  offset="0.7963" style="stop-color:#738CDE"/>
			<stop  offset="0.9975" style="stop-color:#7D5CC6"/>
		</linearGradient>
		<path class="st10" d="M299.9,317.3C299.9,317.3,299.9,317.3,299.9,317.3c0.2,0,0.4,0,0.7,0C300.3,317.4,300.1,317.3,299.9,317.3z"
			/>
		<linearGradient id="SVGID_12_" gradientUnits="userSpaceOnUse" x1="404.1873" y1="627.6137" x2="238.5993" y2="116.6875">
			<stop  offset="0" style="stop-color:#003691"/>
			<stop  offset="0.5061" style="stop-color:#67C3F9"/>
			<stop  offset="0.6052" style="stop-color:#6AB4F2"/>
			<stop  offset="0.7963" style="stop-color:#738CDE"/>
			<stop  offset="0.9975" style="stop-color:#7D5CC6"/>
		</linearGradient>
		<polygon class="st11" points="295,311.1 295,311.1 302.2,292.5 		"/>
		<linearGradient id="SVGID_13_" gradientUnits="userSpaceOnUse" x1="408.5911" y1="626.1865" x2="243.0031" y2="115.2603">
			<stop  offset="0" style="stop-color:#003691"/>
			<stop  offset="0.5061" style="stop-color:#67C3F9"/>
			<stop  offset="0.6052" style="stop-color:#6AB4F2"/>
			<stop  offset="0.7963" style="stop-color:#738CDE"/>
			<stop  offset="0.9975" style="stop-color:#7D5CC6"/>
		</linearGradient>
		<path class="st12" d="M309.3,318.9c-0.2-0.1-0.4-0.1-0.6-0.2C308.9,318.8,309.1,318.8,309.3,318.9
			C309.3,318.9,309.3,318.9,309.3,318.9z"/>
		<linearGradient id="SVGID_14_" gradientUnits="userSpaceOnUse" x1="381.8862" y1="634.8414" x2="216.2982" y2="123.9152">
			<stop  offset="0" style="stop-color:#003691"/>
			<stop  offset="0.5061" style="stop-color:#67C3F9"/>
			<stop  offset="0.6052" style="stop-color:#6AB4F2"/>
			<stop  offset="0.7963" style="stop-color:#738CDE"/>
			<stop  offset="0.9975" style="stop-color:#7D5CC6"/>
		</linearGradient>
		<polygon class="st13" points="280.9,314.4 273.3,308.6 280.9,314.4 		"/>
		<linearGradient id="SVGID_15_" gradientUnits="userSpaceOnUse" x1="380.8439" y1="635.1791" x2="215.2559" y2="124.253">
			<stop  offset="0" style="stop-color:#003691"/>
			<stop  offset="0.5061" style="stop-color:#67C3F9"/>
			<stop  offset="0.6052" style="stop-color:#6AB4F2"/>
			<stop  offset="0.7963" style="stop-color:#738CDE"/>
			<stop  offset="0.9975" style="stop-color:#7D5CC6"/>
		</linearGradient>
		<polygon class="st14" points="279,322.4 281.9,328.6 279,322.4 		"/>
		<linearGradient id="SVGID_16_" gradientUnits="userSpaceOnUse" x1="380.1574" y1="635.4017" x2="214.5694" y2="124.4754">
			<stop  offset="0" style="stop-color:#003691"/>
			<stop  offset="0.5061" style="stop-color:#67C3F9"/>
			<stop  offset="0.6052" style="stop-color:#6AB4F2"/>
			<stop  offset="0.7963" style="stop-color:#738CDE"/>
			<stop  offset="0.9975" style="stop-color:#7D5CC6"/>
		</linearGradient>
		<path class="st15" d="M279,322.3c-0.2,0.1-0.3,0.2-0.5,0.3C278.7,322.6,278.8,322.4,279,322.3C279,322.3,279,322.3,279,322.3z"/>
		<linearGradient id="SVGID_17_" gradientUnits="userSpaceOnUse" x1="365.1164" y1="640.2764" x2="199.5283" y2="129.3502">
			<stop  offset="0" style="stop-color:#003691"/>
			<stop  offset="0.5061" style="stop-color:#67C3F9"/>
			<stop  offset="0.6052" style="stop-color:#6AB4F2"/>
			<stop  offset="0.7963" style="stop-color:#738CDE"/>
			<stop  offset="0.9975" style="stop-color:#7D5CC6"/>
		</linearGradient>
		<path class="st16" d="M266.4,337.5c0.2-0.5,0.4-1.1,0.6-1.6C266.8,336.4,266.6,337,266.4,337.5z"/>
		<linearGradient id="SVGID_18_" gradientUnits="userSpaceOnUse" x1="363.7875" y1="640.707" x2="198.1995" y2="129.7808">
			<stop  offset="0" style="stop-color:#003691"/>
			<stop  offset="0.5061" style="stop-color:#67C3F9"/>
			<stop  offset="0.6052" style="stop-color:#6AB4F2"/>
			<stop  offset="0.7963" style="stop-color:#738CDE"/>
			<stop  offset="0.9975" style="stop-color:#7D5CC6"/>
		</linearGradient>
		<path class="st17" d="M265.9,339.1C265.9,339.1,265.9,339.1,265.9,339.1c0.1-0.2,0.1-0.3,0.2-0.5
			C266,338.8,265.9,338.9,265.9,339.1z"/>
		<linearGradient id="SVGID_19_" gradientUnits="userSpaceOnUse" x1="372.9871" y1="637.7255" x2="207.3991" y2="126.7993">
			<stop  offset="0" style="stop-color:#003691"/>
			<stop  offset="0.5061" style="stop-color:#67C3F9"/>
			<stop  offset="0.6052" style="stop-color:#6AB4F2"/>
			<stop  offset="0.7963" style="stop-color:#738CDE"/>
			<stop  offset="0.9975" style="stop-color:#7D5CC6"/>
		</linearGradient>
		<path class="st18" d="M272.3,327.8C272.3,327.8,272.3,327.8,272.3,327.8c0.1-0.1,0.3-0.3,0.4-0.4
			C272.5,327.5,272.4,327.7,272.3,327.8z"/>
		<linearGradient id="SVGID_20_" gradientUnits="userSpaceOnUse" x1="394.3369" y1="630.8062" x2="228.7489" y2="119.88">
			<stop  offset="0" style="stop-color:#003691"/>
			<stop  offset="0.5061" style="stop-color:#67C3F9"/>
			<stop  offset="0.6052" style="stop-color:#6AB4F2"/>
			<stop  offset="0.7963" style="stop-color:#738CDE"/>
			<stop  offset="0.9975" style="stop-color:#7D5CC6"/>
		</linearGradient>
		<polygon class="st19" points="293.6,317.5 293.6,317.5 294.1,324 		"/>
		<linearGradient id="SVGID_21_" gradientUnits="userSpaceOnUse" x1="419.4375" y1="622.6713" x2="253.8494" y2="111.745">
			<stop  offset="0" style="stop-color:#003691"/>
			<stop  offset="0.5061" style="stop-color:#67C3F9"/>
			<stop  offset="0.6052" style="stop-color:#6AB4F2"/>
			<stop  offset="0.7963" style="stop-color:#738CDE"/>
			<stop  offset="0.9975" style="stop-color:#7D5CC6"/>
		</linearGradient>
		<polygon class="st20" points="326,330.6 324.2,332.4 326,330.6 		"/>
		<linearGradient id="SVGID_22_" gradientUnits="userSpaceOnUse" x1="420.6648" y1="622.2735" x2="255.0768" y2="111.3473">
			<stop  offset="0" style="stop-color:#003691"/>
			<stop  offset="0.5061" style="stop-color:#67C3F9"/>
			<stop  offset="0.6052" style="stop-color:#6AB4F2"/>
			<stop  offset="0.7963" style="stop-color:#738CDE"/>
			<stop  offset="0.9975" style="stop-color:#7D5CC6"/>
		</linearGradient>
		<path class="st21" d="M326,330.6C326,330.6,326,330.6,326,330.6c0.1,0.2,0.3,0.4,0.4,0.6C326.3,331,326.2,330.8,326,330.6z"/>
		<linearGradient id="SVGID_23_" gradientUnits="userSpaceOnUse" x1="387.1427" y1="633.1378" x2="305.0616" y2="379.8744">
			<stop  offset="0" style="stop-color:#003691"/>
			<stop  offset="0.5061" style="stop-color:#67C3F9"/>
			<stop  offset="0.6052" style="stop-color:#6AB4F2"/>
			<stop  offset="0.7963" style="stop-color:#738CDE"/>
			<stop  offset="0.9975" style="stop-color:#7D5CC6"/>
		</linearGradient>
		<path class="st22" d="M296.8,354.3c0,0-0.1,0-0.1,0C296.7,354.3,296.8,354.3,296.8,354.3C296.8,354.3,296.8,354.3,296.8,354.3z"/>
		<linearGradient id="SVGID_24_" gradientUnits="userSpaceOnUse" x1="382.3839" y1="634.6801" x2="216.7959" y2="123.7539">
			<stop  offset="0" style="stop-color:#003691"/>
			<stop  offset="0.5061" style="stop-color:#67C3F9"/>
			<stop  offset="0.6052" style="stop-color:#6AB4F2"/>
			<stop  offset="0.7963" style="stop-color:#738CDE"/>
			<stop  offset="0.9975" style="stop-color:#7D5CC6"/>
		</linearGradient>
		<path class="st23" d="M291.8,355.3C291.8,355.3,291.8,355.3,291.8,355.3c0,0,0.1,0,0.1,0C291.9,355.3,291.8,355.3,291.8,355.3
			C291.8,355.3,291.8,355.3,291.8,355.3z"/>
		<linearGradient id="SVGID_25_" gradientUnits="userSpaceOnUse" x1="415.8194" y1="623.8439" x2="250.2314" y2="112.9176">
			<stop  offset="0" style="stop-color:#003691"/>
			<stop  offset="0.5061" style="stop-color:#67C3F9"/>
			<stop  offset="0.6052" style="stop-color:#6AB4F2"/>
			<stop  offset="0.7963" style="stop-color:#738CDE"/>
			<stop  offset="0.9975" style="stop-color:#7D5CC6"/>
		</linearGradient>
		<polygon class="st24" points="318.8,329 321,326.8 318.8,329 		"/>
		<linearGradient id="SVGID_26_" gradientUnits="userSpaceOnUse" x1="418.0551" y1="623.1192" x2="252.4671" y2="112.193">
			<stop  offset="0" style="stop-color:#003691"/>
			<stop  offset="0.5061" style="stop-color:#67C3F9"/>
			<stop  offset="0.6052" style="stop-color:#6AB4F2"/>
			<stop  offset="0.7963" style="stop-color:#738CDE"/>
			<stop  offset="0.9975" style="stop-color:#7D5CC6"/>
		</linearGradient>
		<path class="st25" d="M321.9,325.9c-0.1-0.1-0.3-0.2-0.4-0.4C321.6,325.6,321.7,325.8,321.9,325.9
			C321.9,325.9,321.9,325.9,321.9,325.9z"/>
		<linearGradient id="SVGID_27_" gradientUnits="userSpaceOnUse" x1="421.684" y1="621.9432" x2="256.096" y2="111.017">
			<stop  offset="0" style="stop-color:#003691"/>
			<stop  offset="0.5061" style="stop-color:#67C3F9"/>
			<stop  offset="0.6052" style="stop-color:#6AB4F2"/>
			<stop  offset="0.7963" style="stop-color:#738CDE"/>
			<stop  offset="0.9975" style="stop-color:#7D5CC6"/>
		</linearGradient>
		<path class="st26" d="M330.3,339.9c-0.1-0.3-0.1-0.5-0.2-0.8C330.1,339.4,330.2,339.6,330.3,339.9
			C330.3,339.9,330.3,339.9,330.3,339.9z"/>
		<linearGradient id="SVGID_28_" gradientUnits="userSpaceOnUse" x1="406.5968" y1="626.8328" x2="241.0088" y2="115.9066">
			<stop  offset="0" style="stop-color:#003691"/>
			<stop  offset="0.5061" style="stop-color:#67C3F9"/>
			<stop  offset="0.6052" style="stop-color:#6AB4F2"/>
			<stop  offset="0.7963" style="stop-color:#738CDE"/>
			<stop  offset="0.9975" style="stop-color:#7D5CC6"/>
		</linearGradient>
		<polygon class="st27" points="307.2,324.2 308.6,320.6 307.2,324.2 		"/>
		<linearGradient id="SVGID_29_" gradientUnits="userSpaceOnUse" x1="413.6347" y1="624.5519" x2="248.0467" y2="113.6257">
			<stop  offset="0" style="stop-color:#003691"/>
			<stop  offset="0.5061" style="stop-color:#67C3F9"/>
			<stop  offset="0.6052" style="stop-color:#6AB4F2"/>
			<stop  offset="0.7963" style="stop-color:#738CDE"/>
			<stop  offset="0.9975" style="stop-color:#7D5CC6"/>
		</linearGradient>
		<path class="st28" d="M315.1,321.2C315.1,321.2,315.1,321.2,315.1,321.2c0.2,0.1,0.3,0.2,0.5,0.3
			C315.5,321.4,315.3,321.3,315.1,321.2z"/>
		<linearGradient id="SVGID_30_" gradientUnits="userSpaceOnUse" x1="356.0218" y1="643.2239" x2="190.4337" y2="132.2977">
			<stop  offset="0" style="stop-color:#003691"/>
			<stop  offset="0.5061" style="stop-color:#67C3F9"/>
			<stop  offset="0.6052" style="stop-color:#6AB4F2"/>
			<stop  offset="0.7963" style="stop-color:#738CDE"/>
			<stop  offset="0.9975" style="stop-color:#7D5CC6"/>
		</linearGradient>
		<path class="st29" d="M271.9,383.5L271.9,383.5c0,0-0.1,0-0.2,0C271.8,383.4,271.9,383.4,271.9,383.5z"/>
		<linearGradient id="SVGID_31_" gradientUnits="userSpaceOnUse" x1="411.8186" y1="625.1404" x2="246.2306" y2="114.2143">
			<stop  offset="0" style="stop-color:#003691"/>
			<stop  offset="0.5061" style="stop-color:#67C3F9"/>
			<stop  offset="0.6052" style="stop-color:#6AB4F2"/>
			<stop  offset="0.7963" style="stop-color:#738CDE"/>
			<stop  offset="0.9975" style="stop-color:#7D5CC6"/>
		</linearGradient>
		<path class="st30" d="M327.2,364.3C327.2,364.3,327.2,364.3,327.2,364.3c0-0.3,0-0.6,0-0.9C327.2,363.7,327.2,364,327.2,364.3z"/>
		<linearGradient id="SVGID_32_" gradientUnits="userSpaceOnUse" x1="356.123" y1="643.191" x2="284.6206" y2="422.5687">
			<stop  offset="0" style="stop-color:#003691"/>
			<stop  offset="0.5061" style="stop-color:#67C3F9"/>
			<stop  offset="0.6052" style="stop-color:#6AB4F2"/>
			<stop  offset="0.7963" style="stop-color:#738CDE"/>
			<stop  offset="0.9975" style="stop-color:#7D5CC6"/>
		</linearGradient>
		<path class="st31" d="M271.9,383.5C272,383.5,272,383.5,271.9,383.5C272,383.5,272,383.5,271.9,383.5
			C271.9,383.5,271.9,383.5,271.9,383.5z"/>
		<linearGradient id="SVGID_33_" gradientUnits="userSpaceOnUse" x1="272.2015" y1="387.2795" x2="272.0417" y2="386.7863">
			<stop  offset="0" style="stop-color:#003691"/>
			<stop  offset="0.5061" style="stop-color:#67C3F9"/>
			<stop  offset="0.6052" style="stop-color:#6AB4F2"/>
			<stop  offset="0.7963" style="stop-color:#738CDE"/>
			<stop  offset="0.9975" style="stop-color:#7D5CC6"/>
		</linearGradient>
		<circle class="st32" cx="272.1" cy="387" r="0"/>
		<linearGradient id="SVGID_34_" gradientUnits="userSpaceOnUse" x1="272.2632" y1="387.3929" x2="272.0551" y2="386.7512">
			<stop  offset="0" style="stop-color:#003691"/>
			<stop  offset="0.5061" style="stop-color:#67C3F9"/>
			<stop  offset="0.6052" style="stop-color:#6AB4F2"/>
			<stop  offset="0.7963" style="stop-color:#738CDE"/>
			<stop  offset="0.9975" style="stop-color:#7D5CC6"/>
		</linearGradient>
		<circle class="st33" cx="272.2" cy="387.1" r="0"/>
		<linearGradient id="SVGID_35_" gradientUnits="userSpaceOnUse" x1="272.5732" y1="388.4158" x2="271.6796" y2="385.6585">
			<stop  offset="0" style="stop-color:#003691"/>
			<stop  offset="0.5061" style="stop-color:#67C3F9"/>
			<stop  offset="0.6052" style="stop-color:#6AB4F2"/>
			<stop  offset="0.7963" style="stop-color:#738CDE"/>
			<stop  offset="0.9975" style="stop-color:#7D5CC6"/>
		</linearGradient>
		<circle class="st34" cx="272.1" cy="387" r="0"/>
		<linearGradient id="SVGID_36_" gradientUnits="userSpaceOnUse" x1="356.9357" y1="642.9277" x2="191.3476" y2="132.0015">
			<stop  offset="0" style="stop-color:#003691"/>
			<stop  offset="0.5061" style="stop-color:#67C3F9"/>
			<stop  offset="0.6052" style="stop-color:#6AB4F2"/>
			<stop  offset="0.7963" style="stop-color:#738CDE"/>
			<stop  offset="0.9975" style="stop-color:#7D5CC6"/>
		</linearGradient>
		<polygon class="st35" points="260.7,335 251.2,327.4 251.2,327.4 260.7,335 		"/>
		<linearGradient id="SVGID_37_" gradientUnits="userSpaceOnUse" x1="365.7994" y1="640.055" x2="200.2113" y2="129.1288">
			<stop  offset="0" style="stop-color:#003691"/>
			<stop  offset="0.5061" style="stop-color:#67C3F9"/>
			<stop  offset="0.6052" style="stop-color:#6AB4F2"/>
			<stop  offset="0.7963" style="stop-color:#738CDE"/>
			<stop  offset="0.9975" style="stop-color:#7D5CC6"/>
		</linearGradient>
		<polygon class="st36" points="270.1,342.5 270.1,342.5 268.1,340.9 		"/>
		<linearGradient id="SVGID_38_" gradientUnits="userSpaceOnUse" x1="367.7238" y1="639.4313" x2="202.1358" y2="128.5051">
			<stop  offset="0" style="stop-color:#003691"/>
			<stop  offset="0.5061" style="stop-color:#67C3F9"/>
			<stop  offset="0.6052" style="stop-color:#6AB4F2"/>
			<stop  offset="0.7963" style="stop-color:#738CDE"/>
			<stop  offset="0.9975" style="stop-color:#7D5CC6"/>
		</linearGradient>
		<path class="st37" d="M268.6,332.9c-0.1,0.1-0.1,0.3-0.2,0.4C268.4,333.2,268.5,333,268.6,332.9
			C268.6,332.9,268.6,332.9,268.6,332.9z"/>
		<linearGradient id="SVGID_39_" gradientUnits="userSpaceOnUse" x1="316.2599" y1="656.1106" x2="150.6718" y2="145.1842">
			<stop  offset="0" style="stop-color:#003691"/>
			<stop  offset="0.5061" style="stop-color:#67C3F9"/>
			<stop  offset="0.6052" style="stop-color:#6AB4F2"/>
			<stop  offset="0.7963" style="stop-color:#738CDE"/>
			<stop  offset="0.9975" style="stop-color:#7D5CC6"/>
		</linearGradient>
		<path class="st38" d="M229.7,386.2c-0.6,0.3-1.1,0.5-1.7,0.7C228.6,386.7,229.2,386.5,229.7,386.2z"/>
		<linearGradient id="SVGID_40_" gradientUnits="userSpaceOnUse" x1="387.641" y1="632.9768" x2="306.2795" y2="381.9339">
			<stop  offset="0" style="stop-color:#003691"/>
			<stop  offset="0.5061" style="stop-color:#67C3F9"/>
			<stop  offset="0.6052" style="stop-color:#6AB4F2"/>
			<stop  offset="0.7963" style="stop-color:#738CDE"/>
			<stop  offset="0.9975" style="stop-color:#7D5CC6"/>
		</linearGradient>
		<path class="st39" d="M287.5,325.8L287.5,325.8c0.4-0.1,0.7-0.2,1.1-0.4C288.2,325.6,287.9,325.7,287.5,325.8
			C287.5,325.8,287.5,325.8,287.5,325.8z"/>
		<linearGradient id="SVGID_41_" gradientUnits="userSpaceOnUse" x1="393.0653" y1="631.2181" x2="227.4773" y2="120.2922">
			<stop  offset="0" style="stop-color:#003691"/>
			<stop  offset="0.5061" style="stop-color:#67C3F9"/>
			<stop  offset="0.6052" style="stop-color:#6AB4F2"/>
			<stop  offset="0.7963" style="stop-color:#738CDE"/>
			<stop  offset="0.9975" style="stop-color:#7D5CC6"/>
		</linearGradient>
		<path class="st40" d="M293,324.3c0.4-0.1,0.8-0.2,1.1-0.2l0,0c0,0,0,0,0,0C293.7,324.1,293.3,324.2,293,324.3z"/>
		<linearGradient id="SVGID_42_" gradientUnits="userSpaceOnUse" x1="386.3285" y1="633.4017" x2="310.6455" y2="399.8797">
			<stop  offset="0" style="stop-color:#003691"/>
			<stop  offset="0.5061" style="stop-color:#67C3F9"/>
			<stop  offset="0.6052" style="stop-color:#6AB4F2"/>
			<stop  offset="0.7963" style="stop-color:#738CDE"/>
			<stop  offset="0.9975" style="stop-color:#7D5CC6"/>
		</linearGradient>
		<path class="st41" d="M284.6,319.6C284.6,319.6,284.6,319.6,284.6,319.6L284.6,319.6C284.6,319.6,284.6,319.6,284.6,319.6z"/>
		<linearGradient id="SVGID_43_" gradientUnits="userSpaceOnUse" x1="395.0529" y1="630.5741" x2="313.1377" y2="377.8226">
			<stop  offset="0" style="stop-color:#003691"/>
			<stop  offset="0.5061" style="stop-color:#67C3F9"/>
			<stop  offset="0.6052" style="stop-color:#6AB4F2"/>
			<stop  offset="0.7963" style="stop-color:#738CDE"/>
			<stop  offset="0.9975" style="stop-color:#7D5CC6"/>
		</linearGradient>
		<path class="st42" d="M293.6,317.5C293.6,317.5,293.6,317.5,293.6,317.5C293.6,317.5,293.6,317.5,293.6,317.5L293.6,317.5z"/>
		<linearGradient id="SVGID_44_" gradientUnits="userSpaceOnUse" x1="405.1944" y1="627.2873" x2="239.6064" y2="116.3611">
			<stop  offset="0" style="stop-color:#003691"/>
			<stop  offset="0.5061" style="stop-color:#67C3F9"/>
			<stop  offset="0.6052" style="stop-color:#6AB4F2"/>
			<stop  offset="0.7963" style="stop-color:#738CDE"/>
			<stop  offset="0.9975" style="stop-color:#7D5CC6"/>
		</linearGradient>
		<path class="st43" d="M306.7,324.1c0.2,0,0.4,0.1,0.6,0.1l0,0c0,0,0,0,0,0C307,324.2,306.9,324.2,306.7,324.1z"/>
		<linearGradient id="SVGID_45_" gradientUnits="userSpaceOnUse" x1="400.079" y1="628.9452" x2="234.491" y2="118.019">
			<stop  offset="0" style="stop-color:#003691"/>
			<stop  offset="0.5061" style="stop-color:#67C3F9"/>
			<stop  offset="0.6052" style="stop-color:#6AB4F2"/>
			<stop  offset="0.7963" style="stop-color:#738CDE"/>
			<stop  offset="0.9975" style="stop-color:#7D5CC6"/>
		</linearGradient>
		<path class="st44" d="M300.3,323.5l-0.5-6.1c0,0,0,0,0,0c0,0,0,0,0,0L300.3,323.5c0.2,0,0.3,0,0.5,0
			C300.7,323.5,300.5,323.5,300.3,323.5C300.3,323.5,300.3,323.5,300.3,323.5z"/>
		<linearGradient id="SVGID_46_" gradientUnits="userSpaceOnUse" x1="408.3104" y1="626.2775" x2="242.7224" y2="115.3512">
			<stop  offset="0" style="stop-color:#003691"/>
			<stop  offset="0.5061" style="stop-color:#67C3F9"/>
			<stop  offset="0.6052" style="stop-color:#6AB4F2"/>
			<stop  offset="0.7963" style="stop-color:#738CDE"/>
			<stop  offset="0.9975" style="stop-color:#7D5CC6"/>
		</linearGradient>
		<path class="st45" d="M309.3,318.9l-0.7,1.7L309.3,318.9C309.3,318.9,309.3,318.9,309.3,318.9
			C309.3,318.9,309.3,318.9,309.3,318.9z"/>
		<linearGradient id="SVGID_47_" gradientUnits="userSpaceOnUse" x1="380.8135" y1="635.1891" x2="215.2255" y2="124.2628">
			<stop  offset="0" style="stop-color:#003691"/>
			<stop  offset="0.5061" style="stop-color:#67C3F9"/>
			<stop  offset="0.6052" style="stop-color:#6AB4F2"/>
			<stop  offset="0.7963" style="stop-color:#738CDE"/>
			<stop  offset="0.9975" style="stop-color:#7D5CC6"/>
		</linearGradient>
		<path class="st46" d="M281.1,329.1c0.3-0.2,0.5-0.3,0.8-0.5l0,0c0,0,0,0,0,0C281.6,328.8,281.4,328.9,281.1,329.1z"/>
		<linearGradient id="SVGID_48_" gradientUnits="userSpaceOnUse" x1="374.8864" y1="637.1099" x2="209.2984" y2="126.1838">
			<stop  offset="0" style="stop-color:#003691"/>
			<stop  offset="0.5061" style="stop-color:#67C3F9"/>
			<stop  offset="0.6052" style="stop-color:#6AB4F2"/>
			<stop  offset="0.7963" style="stop-color:#738CDE"/>
			<stop  offset="0.9975" style="stop-color:#7D5CC6"/>
		</linearGradient>
		<path class="st47" d="M277.5,331.9l-5.2-4c0,0,0,0,0-0.1c0,0,0,0,0,0c0,0,0,0,0,0L277.5,331.9c0.2-0.2,0.5-0.4,0.7-0.6
			C278,331.5,277.7,331.7,277.5,331.9C277.5,331.9,277.5,331.9,277.5,331.9z"/>
		<linearGradient id="SVGID_49_" gradientUnits="userSpaceOnUse" x1="380.4357" y1="635.3115" x2="304.1775" y2="400.0147">
			<stop  offset="0" style="stop-color:#003691"/>
			<stop  offset="0.5061" style="stop-color:#67C3F9"/>
			<stop  offset="0.6052" style="stop-color:#6AB4F2"/>
			<stop  offset="0.7963" style="stop-color:#738CDE"/>
			<stop  offset="0.9975" style="stop-color:#7D5CC6"/>
		</linearGradient>
		<path class="st48" d="M279,322.3C279,322.3,279,322.3,279,322.3C279,322.3,279,322.3,279,322.3L279,322.3z"/>
		<linearGradient id="SVGID_50_" gradientUnits="userSpaceOnUse" x1="369.4942" y1="638.8575" x2="203.9062" y2="127.9313">
			<stop  offset="0" style="stop-color:#003691"/>
			<stop  offset="0.5061" style="stop-color:#67C3F9"/>
			<stop  offset="0.6052" style="stop-color:#6AB4F2"/>
			<stop  offset="0.7963" style="stop-color:#738CDE"/>
			<stop  offset="0.9975" style="stop-color:#7D5CC6"/>
		</linearGradient>
		<path class="st49" d="M268.6,332.9l4.7,3.7c0,0,0,0,0,0c-0.1,0.1-0.2,0.3-0.3,0.4c0.1-0.1,0.2-0.3,0.3-0.4L268.6,332.9
			C268.6,332.9,268.6,332.9,268.6,332.9C268.6,332.9,268.6,332.9,268.6,332.9z"/>
		<linearGradient id="SVGID_51_" gradientUnits="userSpaceOnUse" x1="366.616" y1="639.7903" x2="201.028" y2="128.8642">
			<stop  offset="0" style="stop-color:#003691"/>
			<stop  offset="0.5061" style="stop-color:#67C3F9"/>
			<stop  offset="0.6052" style="stop-color:#6AB4F2"/>
			<stop  offset="0.7963" style="stop-color:#738CDE"/>
			<stop  offset="0.9975" style="stop-color:#7D5CC6"/>
		</linearGradient>
		<path class="st50" d="M270.1,342.5L270.1,342.5c0.1-0.1,0.2-0.3,0.2-0.5C270.2,342.2,270.2,342.3,270.1,342.5
			C270.1,342.5,270.1,342.5,270.1,342.5z"/>
		<linearGradient id="SVGID_52_" gradientUnits="userSpaceOnUse" x1="364.3897" y1="640.5118" x2="198.8017" y2="129.5857">
			<stop  offset="0" style="stop-color:#003691"/>
			<stop  offset="0.5061" style="stop-color:#67C3F9"/>
			<stop  offset="0.6052" style="stop-color:#6AB4F2"/>
			<stop  offset="0.7963" style="stop-color:#738CDE"/>
			<stop  offset="0.9975" style="stop-color:#7D5CC6"/>
		</linearGradient>
		<path class="st51" d="M268.1,340.9l-2.2-1.8c0,0,0,0,0,0c0,0,0,0,0,0L268.1,340.9z"/>
		<linearGradient id="SVGID_53_" gradientUnits="userSpaceOnUse" x1="384.1428" y1="634.1102" x2="218.5547" y2="123.1838">
			<stop  offset="0" style="stop-color:#003691"/>
			<stop  offset="0.5061" style="stop-color:#67C3F9"/>
			<stop  offset="0.6052" style="stop-color:#6AB4F2"/>
			<stop  offset="0.7963" style="stop-color:#738CDE"/>
			<stop  offset="0.9975" style="stop-color:#7D5CC6"/>
		</linearGradient>
		<path class="st52" d="M280.9,314.4c-0.2,0.1-0.4,0.2-0.6,0.3C280.5,314.6,280.7,314.5,280.9,314.4L280.9,314.4
			C280.9,314.4,280.9,314.4,280.9,314.4z"/>
		<linearGradient id="SVGID_54_" gradientUnits="userSpaceOnUse" x1="376.4385" y1="636.6069" x2="210.8505" y2="125.6807">
			<stop  offset="0" style="stop-color:#003691"/>
			<stop  offset="0.5061" style="stop-color:#67C3F9"/>
			<stop  offset="0.6052" style="stop-color:#6AB4F2"/>
			<stop  offset="0.7963" style="stop-color:#738CDE"/>
			<stop  offset="0.9975" style="stop-color:#7D5CC6"/>
		</linearGradient>
		<path class="st53" d="M272.2,319.5c-0.2,0.2-0.4,0.3-0.6,0.5c0,0,0,0,0,0l-6.7-17.7c0,0,0,0,0,0l8.4,6.4l-8.4-6.5l6.7,17.9
			C271.8,319.8,272,319.6,272.2,319.5z"/>
		<linearGradient id="SVGID_55_" gradientUnits="userSpaceOnUse" x1="360.4855" y1="641.7772" x2="194.8974" y2="130.851">
			<stop  offset="0" style="stop-color:#003691"/>
			<stop  offset="0.5061" style="stop-color:#67C3F9"/>
			<stop  offset="0.6052" style="stop-color:#6AB4F2"/>
			<stop  offset="0.7963" style="stop-color:#738CDE"/>
			<stop  offset="0.9975" style="stop-color:#7D5CC6"/>
		</linearGradient>
		<path class="st54" d="M260.7,335L260.7,335c0.2-0.3,0.3-0.7,0.5-1C261,334.3,260.8,334.6,260.7,335C260.7,335,260.7,335,260.7,335
			z"/>
		<linearGradient id="SVGID_56_" gradientUnits="userSpaceOnUse" x1="353.7314" y1="643.9662" x2="188.1433" y2="133.04">
			<stop  offset="0" style="stop-color:#003691"/>
			<stop  offset="0.5061" style="stop-color:#67C3F9"/>
			<stop  offset="0.6052" style="stop-color:#6AB4F2"/>
			<stop  offset="0.7963" style="stop-color:#738CDE"/>
			<stop  offset="0.9975" style="stop-color:#7D5CC6"/>
		</linearGradient>
		<path class="st55" d="M251.2,327.4L251.2,327.4L251.2,327.4C251.1,327.4,251.1,327.4,251.2,327.4z"/>
		<linearGradient id="SVGID_57_" gradientUnits="userSpaceOnUse" x1="364.1936" y1="640.5754" x2="198.6056" y2="129.6492">
			<stop  offset="0" style="stop-color:#003691"/>
			<stop  offset="0.5061" style="stop-color:#67C3F9"/>
			<stop  offset="0.6052" style="stop-color:#6AB4F2"/>
			<stop  offset="0.7963" style="stop-color:#738CDE"/>
			<stop  offset="0.9975" style="stop-color:#7D5CC6"/>
		</linearGradient>
		<path class="st56" d="M263.6,329c-0.2,0.3-0.3,0.6-0.5,0.9C263.3,329.6,263.4,329.3,263.6,329L263.6,329
			C263.6,329,263.6,329,263.6,329z"/>
		<linearGradient id="SVGID_58_" gradientUnits="userSpaceOnUse" x1="398.6248" y1="629.4164" x2="233.0368" y2="118.4903">
			<stop  offset="0" style="stop-color:#003691"/>
			<stop  offset="0.5061" style="stop-color:#67C3F9"/>
			<stop  offset="0.6052" style="stop-color:#6AB4F2"/>
			<stop  offset="0.7963" style="stop-color:#738CDE"/>
			<stop  offset="0.9975" style="stop-color:#7D5CC6"/>
		</linearGradient>
		<path class="st57" d="M295,311.2C295,311.2,295,311.1,295,311.2L295,311.2c0.3,0,0.6,0,0.9,0C295.6,311.1,295.3,311.1,295,311.2z"
			/>
		<linearGradient id="SVGID_59_" gradientUnits="userSpaceOnUse" x1="409.6353" y1="625.8481" x2="244.0473" y2="114.9219">
			<stop  offset="0" style="stop-color:#003691"/>
			<stop  offset="0.5061" style="stop-color:#67C3F9"/>
			<stop  offset="0.6052" style="stop-color:#6AB4F2"/>
			<stop  offset="0.7963" style="stop-color:#738CDE"/>
			<stop  offset="0.9975" style="stop-color:#7D5CC6"/>
		</linearGradient>
		<path class="st58" d="M307.1,311.9c-0.2,0-0.4-0.1-0.6-0.1C306.7,311.9,306.9,311.9,307.1,311.9l-4.2-19.6L307.1,311.9
			C307.1,311.9,307.1,311.9,307.1,311.9z"/>
		<linearGradient id="SVGID_60_" gradientUnits="userSpaceOnUse" x1="410.5757" y1="625.5433" x2="244.9876" y2="114.6171">
			<stop  offset="0" style="stop-color:#003691"/>
			<stop  offset="0.5061" style="stop-color:#67C3F9"/>
			<stop  offset="0.6052" style="stop-color:#6AB4F2"/>
			<stop  offset="0.7963" style="stop-color:#738CDE"/>
			<stop  offset="0.9975" style="stop-color:#7D5CC6"/>
		</linearGradient>
		<path class="st59" d="M302.7,291.3L302.7,291.3l-0.5,1.2L302.7,291.3C302.7,291.3,302.7,291.3,302.7,291.3z"/>
		<linearGradient id="SVGID_61_" gradientUnits="userSpaceOnUse" x1="344.6385" y1="412.3716" x2="285.5686" y2="230.1098">
			<stop  offset="0" style="stop-color:#003691"/>
			<stop  offset="0.5061" style="stop-color:#67C3F9"/>
			<stop  offset="0.6052" style="stop-color:#6AB4F2"/>
			<stop  offset="0.7963" style="stop-color:#738CDE"/>
			<stop  offset="0.9975" style="stop-color:#7D5CC6"/>
		</linearGradient>
		<path class="st60" d="M315.1,321.2L315.1,321.2C315.1,321.2,315.1,321.2,315.1,321.2C315.1,321.2,315.1,321.2,315.1,321.2z"/>
		<linearGradient id="SVGID_62_" gradientUnits="userSpaceOnUse" x1="418.1918" y1="623.075" x2="324.3377" y2="333.4857">
			<stop  offset="0" style="stop-color:#003691"/>
			<stop  offset="0.5061" style="stop-color:#67C3F9"/>
			<stop  offset="0.6052" style="stop-color:#6AB4F2"/>
			<stop  offset="0.7963" style="stop-color:#738CDE"/>
			<stop  offset="0.9975" style="stop-color:#7D5CC6"/>
		</linearGradient>
		<path class="st61" d="M321.9,325.9C321.9,325.9,321.9,325.9,321.9,325.9C321.9,325.9,321.9,325.9,321.9,325.9L321.9,325.9z"/>
		<linearGradient id="SVGID_63_" gradientUnits="userSpaceOnUse" x1="414.3773" y1="624.3112" x2="248.7893" y2="113.385">
			<stop  offset="0" style="stop-color:#003691"/>
			<stop  offset="0.5061" style="stop-color:#67C3F9"/>
			<stop  offset="0.6052" style="stop-color:#6AB4F2"/>
			<stop  offset="0.7963" style="stop-color:#738CDE"/>
			<stop  offset="0.9975" style="stop-color:#7D5CC6"/>
		</linearGradient>
		<path class="st62" d="M318.4,328.7c0.1,0.1,0.3,0.2,0.4,0.3l0,0c0,0,0,0,0,0C318.7,328.9,318.5,328.8,318.4,328.7z"/>
		<linearGradient id="SVGID_64_" gradientUnits="userSpaceOnUse" x1="411.1368" y1="625.3615" x2="245.5488" y2="114.4352">
			<stop  offset="0" style="stop-color:#003691"/>
			<stop  offset="0.5061" style="stop-color:#67C3F9"/>
			<stop  offset="0.6052" style="stop-color:#6AB4F2"/>
			<stop  offset="0.7963" style="stop-color:#738CDE"/>
			<stop  offset="0.9975" style="stop-color:#7D5CC6"/>
		</linearGradient>
		<path class="st63" d="M313.2,326.1C313.2,326.1,313.2,326.1,313.2,326.1l1-2.6L313.2,326.1c0.2,0.1,0.4,0.2,0.7,0.3
			C313.7,326.3,313.5,326.2,313.2,326.1z"/>
		<linearGradient id="SVGID_65_" gradientUnits="userSpaceOnUse" x1="434.9459" y1="617.6451" x2="269.3578" y2="106.7188">
			<stop  offset="0" style="stop-color:#003691"/>
			<stop  offset="0.5061" style="stop-color:#67C3F9"/>
			<stop  offset="0.6052" style="stop-color:#6AB4F2"/>
			<stop  offset="0.7963" style="stop-color:#738CDE"/>
			<stop  offset="0.9975" style="stop-color:#7D5CC6"/>
		</linearGradient>
		<path class="st64" d="M349,327.9l-13.2,8.7c0,0,0,0,0,0c-0.1-0.2-0.1-0.3-0.2-0.5c0.1,0.2,0.1,0.4,0.2,0.5L349,327.9L349,327.9
			C349,327.8,349,327.9,349,327.9z"/>
		<linearGradient id="SVGID_66_" gradientUnits="userSpaceOnUse" x1="427.0721" y1="620.1969" x2="261.4841" y2="109.2707">
			<stop  offset="0" style="stop-color:#003691"/>
			<stop  offset="0.5061" style="stop-color:#67C3F9"/>
			<stop  offset="0.6052" style="stop-color:#6AB4F2"/>
			<stop  offset="0.7963" style="stop-color:#738CDE"/>
			<stop  offset="0.9975" style="stop-color:#7D5CC6"/>
		</linearGradient>
		<path class="st65" d="M332.9,329.8C332.9,329.8,332.9,329.8,332.9,329.8L332.9,329.8c0.1,0.1,0.1,0.3,0.2,0.4
			C333.1,330.1,333,330,332.9,329.8z"/>
		<linearGradient id="SVGID_67_" gradientUnits="userSpaceOnUse" x1="423.0856" y1="621.4889" x2="257.4976" y2="110.5627">
			<stop  offset="0" style="stop-color:#003691"/>
			<stop  offset="0.5061" style="stop-color:#67C3F9"/>
			<stop  offset="0.6052" style="stop-color:#6AB4F2"/>
			<stop  offset="0.7963" style="stop-color:#738CDE"/>
			<stop  offset="0.9975" style="stop-color:#7D5CC6"/>
		</linearGradient>
		<path class="st66" d="M325.9,321c-0.2-0.1-0.3-0.3-0.5-0.4C325.6,320.8,325.7,320.9,325.9,321L325.9,321
			C325.9,321,325.9,321,325.9,321z"/>
		<linearGradient id="SVGID_68_" gradientUnits="userSpaceOnUse" x1="428.8797" y1="619.6111" x2="263.2917" y2="108.6849">
			<stop  offset="0" style="stop-color:#003691"/>
			<stop  offset="0.5061" style="stop-color:#67C3F9"/>
			<stop  offset="0.6052" style="stop-color:#6AB4F2"/>
			<stop  offset="0.7963" style="stop-color:#738CDE"/>
			<stop  offset="0.9975" style="stop-color:#7D5CC6"/>
		</linearGradient>
		<path class="st67" d="M334.4,304.9l-7.8,14.9l7.9-15l-12.3,8.6L334.4,304.9C334.3,304.8,334.4,304.9,334.4,304.9z"/>
		<linearGradient id="SVGID_69_" gradientUnits="userSpaceOnUse" x1="418.2639" y1="623.0516" x2="252.6758" y2="112.1254">
			<stop  offset="0" style="stop-color:#003691"/>
			<stop  offset="0.5061" style="stop-color:#67C3F9"/>
			<stop  offset="0.6052" style="stop-color:#6AB4F2"/>
			<stop  offset="0.7963" style="stop-color:#738CDE"/>
			<stop  offset="0.9975" style="stop-color:#7D5CC6"/>
		</linearGradient>
		<path class="st68" d="M318.5,315.9C318.5,315.9,318.5,315.9,318.5,315.9L318.5,315.9c0.2,0.1,0.4,0.2,0.6,0.3
			C318.9,316.2,318.7,316.1,318.5,315.9z"/>
		<linearGradient id="SVGID_70_" gradientUnits="userSpaceOnUse" x1="420.5588" y1="622.3078" x2="344.8877" y2="388.8228">
			<stop  offset="0" style="stop-color:#003691"/>
			<stop  offset="0.5061" style="stop-color:#67C3F9"/>
			<stop  offset="0.6052" style="stop-color:#6AB4F2"/>
			<stop  offset="0.7963" style="stop-color:#738CDE"/>
			<stop  offset="0.9975" style="stop-color:#7D5CC6"/>
		</linearGradient>
		<path class="st69" d="M326,330.6L326,330.6C326,330.6,326,330.6,326,330.6C326,330.6,326,330.6,326,330.6z"/>
		<linearGradient id="SVGID_71_" gradientUnits="userSpaceOnUse" x1="417.922" y1="623.1624" x2="252.334" y2="112.2362">
			<stop  offset="0" style="stop-color:#003691"/>
			<stop  offset="0.5061" style="stop-color:#67C3F9"/>
			<stop  offset="0.6052" style="stop-color:#6AB4F2"/>
			<stop  offset="0.7963" style="stop-color:#738CDE"/>
			<stop  offset="0.9975" style="stop-color:#7D5CC6"/>
		</linearGradient>
		<path class="st70" d="M323.7,332.9L323.7,332.9c0.1,0.2,0.3,0.4,0.5,0.5C324,333.3,323.9,333.1,323.7,332.9
			C323.7,332.9,323.7,332.9,323.7,332.9z"/>
		<linearGradient id="SVGID_72_" gradientUnits="userSpaceOnUse" x1="420.4427" y1="622.3455" x2="254.8547" y2="111.4192">
			<stop  offset="0" style="stop-color:#003691"/>
			<stop  offset="0.5061" style="stop-color:#67C3F9"/>
			<stop  offset="0.6052" style="stop-color:#6AB4F2"/>
			<stop  offset="0.7963" style="stop-color:#738CDE"/>
			<stop  offset="0.9975" style="stop-color:#7D5CC6"/>
		</linearGradient>
		<path class="st71" d="M328.8,339.9c0.1,0.2,0.2,0.4,0.3,0.6l0,0c0,0,0,0,0,0C329,340.3,328.9,340.1,328.8,339.9z"/>
		<linearGradient id="SVGID_73_" gradientUnits="userSpaceOnUse" x1="421.6543" y1="621.9528" x2="360.0646" y2="431.916">
			<stop  offset="0" style="stop-color:#003691"/>
			<stop  offset="0.5061" style="stop-color:#67C3F9"/>
			<stop  offset="0.6052" style="stop-color:#6AB4F2"/>
			<stop  offset="0.7963" style="stop-color:#738CDE"/>
			<stop  offset="0.9975" style="stop-color:#7D5CC6"/>
		</linearGradient>
		<path class="st72" d="M330.3,339.9C330.3,339.9,330.2,339.9,330.3,339.9L330.3,339.9C330.3,339.9,330.3,339.9,330.3,339.9z"/>
		<linearGradient id="SVGID_74_" gradientUnits="userSpaceOnUse" x1="414.2432" y1="624.3547" x2="297.95" y2="265.5291">
			<stop  offset="0" style="stop-color:#003691"/>
			<stop  offset="0.5061" style="stop-color:#67C3F9"/>
			<stop  offset="0.6052" style="stop-color:#6AB4F2"/>
			<stop  offset="0.7963" style="stop-color:#738CDE"/>
			<stop  offset="0.9975" style="stop-color:#7D5CC6"/>
		</linearGradient>
		<path class="st73" d="M327.7,357.1C327.6,357.1,327.6,357.1,327.7,357.1C327.6,357.1,327.6,357.1,327.7,357.1
			C327.6,357.1,327.6,357.1,327.7,357.1z"/>
		<linearGradient id="SVGID_75_" gradientUnits="userSpaceOnUse" x1="414.807" y1="624.1719" x2="249.219" y2="113.2457">
			<stop  offset="0" style="stop-color:#003691"/>
			<stop  offset="0.5061" style="stop-color:#67C3F9"/>
			<stop  offset="0.6052" style="stop-color:#6AB4F2"/>
			<stop  offset="0.7963" style="stop-color:#738CDE"/>
			<stop  offset="0.9975" style="stop-color:#7D5CC6"/>
		</linearGradient>
		<path class="st74" d="M326,350.2c0,0,0,0.1,0,0.2C326,350.3,326,350.3,326,350.2z"/>
		<linearGradient id="SVGID_76_" gradientUnits="userSpaceOnUse" x1="382.4065" y1="634.6727" x2="216.8184" y2="123.7466">
			<stop  offset="0" style="stop-color:#003691"/>
			<stop  offset="0.5061" style="stop-color:#67C3F9"/>
			<stop  offset="0.6052" style="stop-color:#6AB4F2"/>
			<stop  offset="0.7963" style="stop-color:#738CDE"/>
			<stop  offset="0.9975" style="stop-color:#7D5CC6"/>
		</linearGradient>
		<path class="st75" d="M291.9,355.3c0,0-0.1,0-0.1,0C291.8,355.3,291.9,355.3,291.9,355.3C292,355.3,291.9,355.3,291.9,355.3z"/>
		<linearGradient id="SVGID_77_" gradientUnits="userSpaceOnUse" x1="282.9307" y1="389.852" x2="260.8065" y2="321.5871">
			<stop  offset="0" style="stop-color:#003691"/>
			<stop  offset="0.5061" style="stop-color:#67C3F9"/>
			<stop  offset="0.6052" style="stop-color:#6AB4F2"/>
			<stop  offset="0.7963" style="stop-color:#738CDE"/>
			<stop  offset="0.9975" style="stop-color:#7D5CC6"/>
		</linearGradient>
		<path class="st76" d="M271.9,355.7C271.9,355.7,271.9,355.7,271.9,355.7C271.9,355.7,271.9,355.7,271.9,355.7
			C271.9,355.7,271.9,355.7,271.9,355.7z"/>
		<linearGradient id="SVGID_78_" gradientUnits="userSpaceOnUse" x1="364.136" y1="640.5942" x2="286.0591" y2="399.6857">
			<stop  offset="0" style="stop-color:#003691"/>
			<stop  offset="0.5061" style="stop-color:#67C3F9"/>
			<stop  offset="0.6052" style="stop-color:#6AB4F2"/>
			<stop  offset="0.7963" style="stop-color:#738CDE"/>
			<stop  offset="0.9975" style="stop-color:#7D5CC6"/>
		</linearGradient>
		<path class="st77" d="M271.8,355.8l0.1-0.1C271.9,355.7,271.9,355.7,271.8,355.8C271.8,355.7,271.8,355.8,271.8,355.8z"/>
		<linearGradient id="SVGID_79_" gradientUnits="userSpaceOnUse" x1="301.2518" y1="355.3094" x2="300.909" y2="354.2517">
			<stop  offset="0" style="stop-color:#003691"/>
			<stop  offset="0.5061" style="stop-color:#67C3F9"/>
			<stop  offset="0.6052" style="stop-color:#6AB4F2"/>
			<stop  offset="0.7963" style="stop-color:#738CDE"/>
			<stop  offset="0.9975" style="stop-color:#7D5CC6"/>
		</linearGradient>
		<polygon class="st78" points="301.1,354.8 301.1,354.8 301.1,354.8 		"/>
		<linearGradient id="SVGID_80_" gradientUnits="userSpaceOnUse" x1="394.3402" y1="630.8051" x2="228.7522" y2="119.8789">
			<stop  offset="0" style="stop-color:#003691"/>
			<stop  offset="0.5061" style="stop-color:#67C3F9"/>
			<stop  offset="0.6052" style="stop-color:#6AB4F2"/>
			<stop  offset="0.7963" style="stop-color:#738CDE"/>
			<stop  offset="0.9975" style="stop-color:#7D5CC6"/>
		</linearGradient>
		<path class="st79" d="M307.1,358.1c-0.9-0.9-1.9-1.7-3.1-2.2C305.2,356.4,306.2,357.2,307.1,358.1z"/>
		<linearGradient id="SVGID_81_" gradientUnits="userSpaceOnUse" x1="392.0874" y1="631.5352" x2="226.4994" y2="120.609">
			<stop  offset="0" style="stop-color:#003691"/>
			<stop  offset="0.5061" style="stop-color:#67C3F9"/>
			<stop  offset="0.6052" style="stop-color:#6AB4F2"/>
			<stop  offset="0.7963" style="stop-color:#738CDE"/>
			<stop  offset="0.9975" style="stop-color:#7D5CC6"/>
		</linearGradient>
		<path class="st80" d="M301.1,354.8c0.8,0.5,2.1,0.7,3,1.1C303.2,355.5,301.9,355.3,301.1,354.8
			C301.1,354.8,301.1,354.8,301.1,354.8z"/>
		<linearGradient id="SVGID_82_" gradientUnits="userSpaceOnUse" x1="316.5508" y1="431.3127" x2="267.2868" y2="279.3074">
			<stop  offset="0" style="stop-color:#003691"/>
			<stop  offset="0.5061" style="stop-color:#67C3F9"/>
			<stop  offset="0.6052" style="stop-color:#6AB4F2"/>
			<stop  offset="0.7963" style="stop-color:#738CDE"/>
			<stop  offset="0.9975" style="stop-color:#7D5CC6"/>
		</linearGradient>
		<path class="st81" d="M291.9,355.3C291.9,355.3,292,355.3,291.9,355.3C292,355.3,291.9,355.3,291.9,355.3z"/>
		<linearGradient id="SVGID_83_" gradientUnits="userSpaceOnUse" x1="364.0054" y1="640.6364" x2="198.4174" y2="129.7102">
			<stop  offset="0" style="stop-color:#003691"/>
			<stop  offset="0.5061" style="stop-color:#67C3F9"/>
			<stop  offset="0.6052" style="stop-color:#6AB4F2"/>
			<stop  offset="0.7963" style="stop-color:#738CDE"/>
			<stop  offset="0.9975" style="stop-color:#7D5CC6"/>
		</linearGradient>
		<path class="st82" d="M272,356c0-0.1-0.1-0.2-0.1-0.3l-0.1,0.1C271.4,356,271.5,356,272,356z"/>
		<linearGradient id="SVGID_84_" gradientUnits="userSpaceOnUse" x1="402.1922" y1="628.2604" x2="236.6041" y2="117.3341">
			<stop  offset="0" style="stop-color:#003691"/>
			<stop  offset="0.5061" style="stop-color:#67C3F9"/>
			<stop  offset="0.6052" style="stop-color:#6AB4F2"/>
			<stop  offset="0.7963" style="stop-color:#738CDE"/>
			<stop  offset="0.9975" style="stop-color:#7D5CC6"/>
		</linearGradient>
		<path class="st83" d="M315,362.5c0.9-0.6,1.7-1.2,1.7-1.3c0-0.1,0-0.3,0-0.4C315.7,361.1,315.2,361.7,315,362.5z"/>
		<linearGradient id="SVGID_85_" gradientUnits="userSpaceOnUse" x1="355.2471" y1="643.4749" x2="248.7003" y2="314.7218">
			<stop  offset="0" style="stop-color:#003691"/>
			<stop  offset="0.5061" style="stop-color:#67C3F9"/>
			<stop  offset="0.6052" style="stop-color:#6AB4F2"/>
			<stop  offset="0.7963" style="stop-color:#738CDE"/>
			<stop  offset="0.9975" style="stop-color:#7D5CC6"/>
		</linearGradient>
		<path class="st84" d="M272.1,387C272.1,387,272.1,387.1,272.1,387C272.1,387.1,272.1,387,272.1,387z"/>
		<linearGradient id="SVGID_86_" gradientUnits="userSpaceOnUse" x1="278.5234" y1="406.7807" x2="265.726" y2="367.2939">
			<stop  offset="0" style="stop-color:#003691"/>
			<stop  offset="0.5061" style="stop-color:#67C3F9"/>
			<stop  offset="0.6052" style="stop-color:#6AB4F2"/>
			<stop  offset="0.7963" style="stop-color:#738CDE"/>
			<stop  offset="0.9975" style="stop-color:#7D5CC6"/>
		</linearGradient>
		<path class="st85" d="M272.1,387C272.1,387,272.1,387,272.1,387C272.1,387,272.1,387,272.1,387z"/>
		<linearGradient id="SVGID_87_" gradientUnits="userSpaceOnUse" x1="280.0428" y1="411.4874" x2="264.1924" y2="362.5808">
			<stop  offset="0" style="stop-color:#003691"/>
			<stop  offset="0.5061" style="stop-color:#67C3F9"/>
			<stop  offset="0.6052" style="stop-color:#6AB4F2"/>
			<stop  offset="0.7963" style="stop-color:#738CDE"/>
			<stop  offset="0.9975" style="stop-color:#7D5CC6"/>
		</linearGradient>
		<path class="st86" d="M272.1,387C272.1,387,272.1,387,272.1,387C272.1,387,272.1,387,272.1,387z"/>
		<linearGradient id="SVGID_88_" gradientUnits="userSpaceOnUse" x1="386.2492" y1="633.4273" x2="220.6612" y2="122.5012">
			<stop  offset="0" style="stop-color:#003691"/>
			<stop  offset="0.5061" style="stop-color:#67C3F9"/>
			<stop  offset="0.6052" style="stop-color:#6AB4F2"/>
			<stop  offset="0.7963" style="stop-color:#738CDE"/>
			<stop  offset="0.9975" style="stop-color:#7D5CC6"/>
		</linearGradient>
		<path class="st87" d="M296.7,354.3c-0.7,0-1.3,0-1.9,0.1c0.7-0.1,1.4-0.1,2.1-0.1C296.8,354.3,296.7,354.3,296.7,354.3z"/>
		<linearGradient id="SVGID_89_" gradientUnits="userSpaceOnUse" x1="397.5952" y1="629.7502" x2="232.0072" y2="118.8239">
			<stop  offset="0" style="stop-color:#003691"/>
			<stop  offset="0.5061" style="stop-color:#67C3F9"/>
			<stop  offset="0.6052" style="stop-color:#6AB4F2"/>
			<stop  offset="0.7963" style="stop-color:#738CDE"/>
			<stop  offset="0.9975" style="stop-color:#7D5CC6"/>
		</linearGradient>
		<path class="st88" d="M310.3,359c-0.3,0.1-0.6,0.3-0.8,0.5c0,0,0,0,0,0C309.7,359.4,310,359.2,310.3,359z"/>
		<linearGradient id="SVGID_90_" gradientUnits="userSpaceOnUse" x1="403.2938" y1="627.9033" x2="237.7057" y2="116.9771">
			<stop  offset="0" style="stop-color:#003691"/>
			<stop  offset="0.5061" style="stop-color:#67C3F9"/>
			<stop  offset="0.6052" style="stop-color:#6AB4F2"/>
			<stop  offset="0.7963" style="stop-color:#738CDE"/>
			<stop  offset="0.9975" style="stop-color:#7D5CC6"/>
		</linearGradient>
		<path class="st89" d="M316.6,360.7c0.1,0,0.1,0,0.2-0.1c0,0,0,0,0,0c0,0-0.1,0-0.3-0.1C316.6,360.7,316.6,360.7,316.6,360.7z"/>
		<linearGradient id="SVGID_91_" gradientUnits="userSpaceOnUse" x1="280.0455" y1="411.4959" x2="264.1897" y2="362.5723">
			<stop  offset="0" style="stop-color:#003691"/>
			<stop  offset="0.5061" style="stop-color:#67C3F9"/>
			<stop  offset="0.6052" style="stop-color:#6AB4F2"/>
			<stop  offset="0.7963" style="stop-color:#738CDE"/>
			<stop  offset="0.9975" style="stop-color:#7D5CC6"/>
		</linearGradient>
		<path class="st90" d="M272.1,387C272.1,387,272.1,387,272.1,387C272.1,387,272.1,387,272.1,387C272.1,387,272.1,387,272.1,387z"/>
		<linearGradient id="SVGID_92_" gradientUnits="userSpaceOnUse" x1="273.9163" y1="392.4927" x2="270.4035" y2="381.6539">
			<stop  offset="0" style="stop-color:#003691"/>
			<stop  offset="0.5061" style="stop-color:#67C3F9"/>
			<stop  offset="0.6052" style="stop-color:#6AB4F2"/>
			<stop  offset="0.7963" style="stop-color:#738CDE"/>
			<stop  offset="0.9975" style="stop-color:#7D5CC6"/>
		</linearGradient>
		<polygon class="st91" points="272.2,387.1 272.2,387.1 272.2,387.1 		"/>
		<linearGradient id="SVGID_93_" gradientUnits="userSpaceOnUse" x1="355.2471" y1="643.475" x2="247.9414" y2="312.3806">
			<stop  offset="0" style="stop-color:#003691"/>
			<stop  offset="0.5061" style="stop-color:#67C3F9"/>
			<stop  offset="0.6052" style="stop-color:#6AB4F2"/>
			<stop  offset="0.7963" style="stop-color:#738CDE"/>
			<stop  offset="0.9975" style="stop-color:#7D5CC6"/>
		</linearGradient>
		<path class="st92" d="M272.2,387.1C272.2,387.1,272.2,387.1,272.2,387.1C272.1,387.1,272.1,387,272.2,387.1
			C272.1,387,272.1,387,272.2,387.1C272.1,387,272.1,387.1,272.2,387.1z"/>
		<linearGradient id="SVGID_94_" gradientUnits="userSpaceOnUse" x1="355.2702" y1="643.4675" x2="189.6821" y2="132.5413">
			<stop  offset="0" style="stop-color:#003691"/>
			<stop  offset="0.5061" style="stop-color:#67C3F9"/>
			<stop  offset="0.6052" style="stop-color:#6AB4F2"/>
			<stop  offset="0.7963" style="stop-color:#738CDE"/>
			<stop  offset="0.9975" style="stop-color:#7D5CC6"/>
		</linearGradient>
		<path class="st93" d="M272.2,387.1C272.2,387.1,272.2,387.1,272.2,387.1C272.2,387.1,272.2,387.1,272.2,387.1z"/>
		<linearGradient id="SVGID_95_" gradientUnits="userSpaceOnUse" x1="278.8664" y1="407.8387" x2="265.3833" y2="366.2364">
			<stop  offset="0" style="stop-color:#003691"/>
			<stop  offset="0.5061" style="stop-color:#67C3F9"/>
			<stop  offset="0.6052" style="stop-color:#6AB4F2"/>
			<stop  offset="0.7963" style="stop-color:#738CDE"/>
			<stop  offset="0.9975" style="stop-color:#7D5CC6"/>
		</linearGradient>
		<circle class="st94" cx="272.1" cy="387" r="0"/>
		<linearGradient id="SVGID_96_" gradientUnits="userSpaceOnUse" x1="359.3405" y1="642.1483" x2="193.7524" y2="131.2221">
			<stop  offset="0" style="stop-color:#003691"/>
			<stop  offset="0.5061" style="stop-color:#67C3F9"/>
			<stop  offset="0.6052" style="stop-color:#6AB4F2"/>
			<stop  offset="0.7963" style="stop-color:#738CDE"/>
			<stop  offset="0.9975" style="stop-color:#7D5CC6"/>
		</linearGradient>
		<polygon class="st95" points="263.6,329 251.6,327.4 263.6,329 		"/>
		<linearGradient id="SVGID_97_" gradientUnits="userSpaceOnUse" x1="434.5989" y1="617.7574" x2="269.0109" y2="106.8314">
			<stop  offset="0" style="stop-color:#003691"/>
			<stop  offset="0.5061" style="stop-color:#67C3F9"/>
			<stop  offset="0.6052" style="stop-color:#6AB4F2"/>
			<stop  offset="0.7963" style="stop-color:#738CDE"/>
			<stop  offset="0.9975" style="stop-color:#7D5CC6"/>
		</linearGradient>
		<polygon class="st96" points="349,327.8 332.9,329.8 332.9,329.8 		"/>
		<linearGradient id="SVGID_98_" gradientUnits="userSpaceOnUse" x1="386.8613" y1="633.2289" x2="221.2733" y2="122.3028">
			<stop  offset="0" style="stop-color:#003691"/>
			<stop  offset="0.5061" style="stop-color:#67C3F9"/>
			<stop  offset="0.6052" style="stop-color:#6AB4F2"/>
			<stop  offset="0.7963" style="stop-color:#738CDE"/>
			<stop  offset="0.9975" style="stop-color:#7D5CC6"/>
		</linearGradient>
		<polygon class="st97" points="287.5,325.8 287.5,325.8 285.8,322.1 		"/>
		<linearGradient id="SVGID_99_" gradientUnits="userSpaceOnUse" x1="353.9653" y1="643.8903" x2="188.3773" y2="132.9642">
			<stop  offset="0" style="stop-color:#003691"/>
			<stop  offset="0.5061" style="stop-color:#67C3F9"/>
			<stop  offset="0.6052" style="stop-color:#6AB4F2"/>
			<stop  offset="0.7963" style="stop-color:#738CDE"/>
			<stop  offset="0.9975" style="stop-color:#7D5CC6"/>
		</linearGradient>
		<polygon class="st98" points="251.2,327.4 251.2,327.4 251.6,327.4 		"/>
		<linearGradient id="SVGID_100_" gradientUnits="userSpaceOnUse" x1="417.6455" y1="623.2521" x2="252.0574" y2="112.3258">
			<stop  offset="0" style="stop-color:#003691"/>
			<stop  offset="0.5061" style="stop-color:#67C3F9"/>
			<stop  offset="0.6052" style="stop-color:#6AB4F2"/>
			<stop  offset="0.7963" style="stop-color:#738CDE"/>
			<stop  offset="0.9975" style="stop-color:#7D5CC6"/>
		</linearGradient>
		<polygon class="st99" points="321.9,325.9 321.9,325.9 321,326.8 		"/>
		<linearGradient id="SVGID_101_" gradientUnits="userSpaceOnUse" x1="423.7396" y1="621.277" x2="258.1516" y2="110.3507">
			<stop  offset="0" style="stop-color:#003691"/>
			<stop  offset="0.5061" style="stop-color:#67C3F9"/>
			<stop  offset="0.6052" style="stop-color:#6AB4F2"/>
			<stop  offset="0.7963" style="stop-color:#738CDE"/>
			<stop  offset="0.9975" style="stop-color:#7D5CC6"/>
		</linearGradient>
		<polygon class="st100" points="325.9,321 326.6,319.8 325.9,321 		"/>
		<linearGradient id="SVGID_102_" gradientUnits="userSpaceOnUse" x1="418.0655" y1="623.1159" x2="252.4775" y2="112.1897">
			<stop  offset="0" style="stop-color:#003691"/>
			<stop  offset="0.5061" style="stop-color:#67C3F9"/>
			<stop  offset="0.6052" style="stop-color:#6AB4F2"/>
			<stop  offset="0.7963" style="stop-color:#738CDE"/>
			<stop  offset="0.9975" style="stop-color:#7D5CC6"/>
		</linearGradient>
		<polygon class="st101" points="323.7,332.9 323.7,332.9 324.2,332.4 		"/>
		<linearGradient id="SVGID_103_" gradientUnits="userSpaceOnUse" x1="421.0751" y1="622.1406" x2="255.487" y2="111.2142">
			<stop  offset="0" style="stop-color:#003691"/>
			<stop  offset="0.5061" style="stop-color:#67C3F9"/>
			<stop  offset="0.6052" style="stop-color:#6AB4F2"/>
			<stop  offset="0.7963" style="stop-color:#738CDE"/>
			<stop  offset="0.9975" style="stop-color:#7D5CC6"/>
		</linearGradient>
		<polygon class="st102" points="329.2,340.5 330.2,339.9 330.2,339.9 329.2,340.5 		"/>
		<linearGradient id="SVGID_104_" gradientUnits="userSpaceOnUse" x1="397.0965" y1="629.9119" x2="264.9977" y2="222.3177">
			<stop  offset="0" style="stop-color:#003691"/>
			<stop  offset="0.5061" style="stop-color:#67C3F9"/>
			<stop  offset="0.6052" style="stop-color:#6AB4F2"/>
			<stop  offset="0.7963" style="stop-color:#738CDE"/>
			<stop  offset="0.9975" style="stop-color:#7D5CC6"/>
		</linearGradient>
		<path class="st103" d="M309.5,359.5c0,0-0.1,0.1-0.1,0.1c0,0,0,0,0,0C309.4,359.6,309.5,359.5,309.5,359.5
			C309.5,359.5,309.5,359.5,309.5,359.5z"/>
		<linearGradient id="SVGID_105_" gradientUnits="userSpaceOnUse" x1="397.1021" y1="629.91" x2="242.9373" y2="154.2303">
			<stop  offset="0" style="stop-color:#003691"/>
			<stop  offset="0.5061" style="stop-color:#67C3F9"/>
			<stop  offset="0.6052" style="stop-color:#6AB4F2"/>
			<stop  offset="0.7963" style="stop-color:#738CDE"/>
			<stop  offset="0.9975" style="stop-color:#7D5CC6"/>
		</linearGradient>
		<path class="st104" d="M309.4,359.6c0,0,0.1,0,0.1-0.1c0,0,0,0,0,0C309.5,359.5,309.4,359.5,309.4,359.6z"/>
		<linearGradient id="SVGID_106_" gradientUnits="userSpaceOnUse" x1="396.981" y1="629.9493" x2="318.0087" y2="386.2781">
			<stop  offset="0" style="stop-color:#003691"/>
			<stop  offset="0.5061" style="stop-color:#67C3F9"/>
			<stop  offset="0.6052" style="stop-color:#6AB4F2"/>
			<stop  offset="0.7963" style="stop-color:#738CDE"/>
			<stop  offset="0.9975" style="stop-color:#7D5CC6"/>
		</linearGradient>
		<path class="st105" d="M309.3,359.6C309.3,359.6,309.4,359.6,309.3,359.6C309.4,359.6,309.4,359.6,309.3,359.6
			C309.4,359.6,309.3,359.6,309.3,359.6z"/>
		<linearGradient id="SVGID_107_" gradientUnits="userSpaceOnUse" x1="382.3996" y1="634.6749" x2="221.7968" y2="139.1308">
			<stop  offset="0" style="stop-color:#003691"/>
			<stop  offset="0.5061" style="stop-color:#67C3F9"/>
			<stop  offset="0.6052" style="stop-color:#6AB4F2"/>
			<stop  offset="0.7963" style="stop-color:#738CDE"/>
			<stop  offset="0.9975" style="stop-color:#7D5CC6"/>
		</linearGradient>
		<path class="st106" d="M291.9,355.3c0,0-0.1,0-0.1,0l0,0C291.8,355.3,291.9,355.3,291.9,355.3z"/>
		<linearGradient id="SVGID_108_" gradientUnits="userSpaceOnUse" x1="418.3905" y1="623.0106" x2="252.8024" y2="112.0844">
			<stop  offset="0" style="stop-color:#003691"/>
			<stop  offset="0.5061" style="stop-color:#67C3F9"/>
			<stop  offset="0.6052" style="stop-color:#6AB4F2"/>
			<stop  offset="0.7963" style="stop-color:#738CDE"/>
			<stop  offset="0.9975" style="stop-color:#7D5CC6"/>
		</linearGradient>
		<path class="st107" d="M330.8,353.2c0,0,0.1-0.1,0.2-0.3l-0.3-0.2C330.7,352.9,330.8,353,330.8,353.2z"/>
		<linearGradient id="SVGID_109_" gradientUnits="userSpaceOnUse" x1="418.4743" y1="622.9834" x2="252.8863" y2="112.0572">
			<stop  offset="0" style="stop-color:#003691"/>
			<stop  offset="0.5061" style="stop-color:#67C3F9"/>
			<stop  offset="0.6052" style="stop-color:#6AB4F2"/>
			<stop  offset="0.7963" style="stop-color:#738CDE"/>
			<stop  offset="0.9975" style="stop-color:#7D5CC6"/>
		</linearGradient>
		<path class="st108" d="M330.6,352.4c0,0.1,0,0.2,0.1,0.3l0.3,0.2c0-0.1,0-0.1,0.1-0.2C330.9,352.6,330.8,352.5,330.6,352.4z"/>
		<linearGradient id="SVGID_110_" gradientUnits="userSpaceOnUse" x1="414.3643" y1="624.3154" x2="248.7762" y2="113.3892">
			<stop  offset="0" style="stop-color:#003691"/>
			<stop  offset="0.5061" style="stop-color:#67C3F9"/>
			<stop  offset="0.6052" style="stop-color:#6AB4F2"/>
			<stop  offset="0.7963" style="stop-color:#738CDE"/>
			<stop  offset="0.9975" style="stop-color:#7D5CC6"/>
		</linearGradient>
		<path class="st109" d="M327.7,356.6c0,0.2-0.1,0.3-0.1,0.5c0,0,0,0,0,0C328,357.3,328,357.2,327.7,356.6z"/>
		<linearGradient id="SVGID_111_" gradientUnits="userSpaceOnUse" x1="405.7981" y1="627.0917" x2="240.21" y2="116.1655">
			<stop  offset="0" style="stop-color:#003691"/>
			<stop  offset="0.5061" style="stop-color:#67C3F9"/>
			<stop  offset="0.6052" style="stop-color:#6AB4F2"/>
			<stop  offset="0.7963" style="stop-color:#738CDE"/>
			<stop  offset="0.9975" style="stop-color:#7D5CC6"/>
		</linearGradient>
		<path class="st110" d="M320.2,362.6c0-0.1,0-0.1,0-0.2c0,0-0.1,0-0.1,0C319.7,362.1,319.7,362.2,320.2,362.6z"/>
		<linearGradient id="SVGID_112_" gradientUnits="userSpaceOnUse" x1="457.1063" y1="610.463" x2="291.5183" y2="99.5368">
			<stop  offset="0" style="stop-color:#003691"/>
			<stop  offset="0.5061" style="stop-color:#67C3F9"/>
			<stop  offset="0.6052" style="stop-color:#6AB4F2"/>
			<stop  offset="0.7963" style="stop-color:#738CDE"/>
			<stop  offset="0.9975" style="stop-color:#7D5CC6"/>
		</linearGradient>
		<path class="st111" d="M416.7,490c0.7-0.8,1.4-1.6,2-2.2C418.1,488.5,417.5,489.2,416.7,490z"/>
		<g>
			<linearGradient id="SVGID_113_" gradientUnits="userSpaceOnUse" x1="326.5383" y1="652.7793" x2="160.9502" y2="141.8531">
				<stop  offset="0" style="stop-color:#003691"/>
				<stop  offset="0.5061" style="stop-color:#67C3F9"/>
				<stop  offset="0.6052" style="stop-color:#6AB4F2"/>
				<stop  offset="0.7963" style="stop-color:#738CDE"/>
				<stop  offset="0.9975" style="stop-color:#7D5CC6"/>
			</linearGradient>
			<path class="st112" d="M282.4,405l-24.8-22l-5-8.9c-0.1-1.4-0.3-2.9-0.5-4.6c-0.3-1.7-1.8-2.8-3.5-2.7l-5.7-20.4l-0.1,0
				l-3.5-13.1l-10.5-37.7c-0.2-0.8-0.8-1.5-1.5-1.9l0.7-12.7c0-0.4,0-0.8-0.2-1.2c2.2-1.5,2.6-3.6,2.9-5.1c0.1-0.3,0.1-0.7,0.2-1
				c1-4.1,0.9-17.6,0.5-20.8c-0.1-0.6-0.1-1.2-0.2-1.8c-0.2-1.8-0.3-3.9-1.3-5.8l0.5-8.6c0,0,0-0.1,0-0.1c3.3-1.7,5.5-4,7-6
				c3.1-4.4,3.4-8.8,3.4-9.3c0-0.9-0.3-1.7-0.9-2.4c-0.6-0.6-1.5-1-2.3-1h-42c-0.9,0-1.7,0.3-2.3,1c-0.6,0.6-0.9,1.4-0.9,2.3
				c0,0.5,0.1,4.8,3.2,9.3c1.5,2.2,4,4.7,7.8,6.4c0,0.1,0,0.1,0,0.2l0.4,4.3c-1.8,0.7-3.2,1.8-4.1,3.1c-2.6,3.5-3.5,9.5-2.7,18.4
				c0.1,0.8,0.1,1.8,0.1,2.9c0.1,4.3,0.3,9.6,2.9,12.6c1.6,1.9,4.3,3,8.3,3.5c-0.5,0.6-0.8,1.4-0.7,2.3l0.9,10.5
				c0.1,0.8,0.5,1.6,1,2.1c0,0,0,0,0,0l-3.8,51.7c0,0.5,0.1,1.1,0.3,1.6l6.1,13.6l0.4,13.3c-1.5,0.3-2.6,1.6-2.6,3.2
				c0,2.9,0.5,5.5,1.6,7.7l-4.3,8.1c-0.1,0.2-0.2,0.5-0.3,0.8c-0.3,1.3-2.9,12.9,2.7,19.2c1.3,1.5,3.5,3.2,7,3.7
				c-1.4,5.3-2.9,10.4-2.9,10.5c-0.4,1.2,0,2.5,0.9,3.4l13.2,11.7l-6.8,49.3l7.3,0.1l6.4-48.5c0.7-1.3,0.4-3-0.7-4l-13.6-12.1
				c0.8-2.8,2.3-8.1,3.4-12.8c0.2-1,0-2.1-0.7-2.9c-0.7-0.8-1.7-1.2-2.8-1.1c-4.1,0.4-5.4-1.1-5.9-1.6c-2.7-3.1-1.9-10.3-1.3-13.1
				l3-5.7c1.5,0.9,3.6,1.6,6.4,1.6c2.7,0,6.1-0.7,10.2-2.7c5.8-2.8,10.2-10.4,12.7-17.6l0.8,1.5c-0.1,4.8-1.8,8.4-5.2,14.3
				c-0.9,1.6-0.4,3.5,1.2,4.4c0.5,0.3,1.1,0.4,1.6,0.4c1.1,0,2.2-0.6,2.8-1.6c1.9-3.3,3.4-6.2,4.5-8.9l1.2,2.2
				c0.2,0.3,0.4,0.6,0.7,0.8l29.6,26.3c0.6,0.5,1.4,0.8,2.1,0.8c0.9,0,1.8-0.4,2.4-1.1c0.1-0.1,0.2-0.2,0.2-0.3
				c0.9-0.6,1.4-1.6,1.4-2.7L282.4,405z M201.1,227.2c-0.7-0.9-1.1-1.8-1.4-2.6h33.9c-0.3,0.8-0.8,1.6-1.3,2.5
				c-3,4.2-8.2,6.3-15.8,6.2C209.1,233.1,204,231.1,201.1,227.2z M223.9,239.1l-0.1,1.8c-3.1-0.9-6.2-0.9-9.1-0.9l-0.8,0
				c-0.3,0-0.7,0-1.1,0c-0.9,0-1.8,0.1-2.6,0.2l-0.1-1c1.9,0.3,3.9,0.5,6.2,0.6c0.2,0,0.4,0,0.6,0
				C219.5,239.7,221.9,239.5,223.9,239.1z M204.9,274.4c-1.1-1.3-1.2-5.9-1.3-8.6c0-1.2-0.1-2.3-0.2-3.3c-0.9-9.7,0.7-12.9,1.4-13.9
				c0.3-0.4,1.9-1.9,8.2-2.1c0.2,0,0.4,0,0.6,0l1,0c3.1,0,5.9,0.1,8.4,1c1.4,0.6,1.6,1.1,1.9,4.5c0.1,0.6,0.1,1.3,0.2,2
				c0.4,3.2,0.3,15.5-0.4,18.4c-0.1,0.5-0.2,0.9-0.3,1.3c-0.1,0.3-0.1,0.7-0.2,1c-1.4,0.4-6.6,1.2-11.5,1.2c0,0,0,0,0,0
				C207.5,275.8,205.3,274.9,204.9,274.4z M221.6,281.7l-0.5,9.4l-6.4,0.2l-0.7-7.5c0-0.5-0.2-1-0.5-1.5
				C216.2,282.3,219.1,282,221.6,281.7z M240.9,366c-0.1,0.5-0.2,1.1-0.3,1.6c-0.3,1.1-0.6,2.2-0.9,3.3c-0.2,0.6-0.4,1.1-0.6,1.7
				c-0.6,1.7-1.3,3.3-2.1,4.8c-0.5,1-1.1,2-1.6,2.9c-0.1,0.2-0.3,0.5-0.4,0.7c-0.3,0.4-0.6,0.9-0.9,1.3c-0.2,0.2-0.3,0.4-0.5,0.6
				c-0.5,0.6-0.9,1.1-1.4,1.6c-0.8,0.8-1.6,1.4-2.5,1.8c-0.6,0.3-1.1,0.5-1.7,0.7c-3,1.2-5.5,1.6-7.4,1.1c-0.5-0.1-1-0.3-1.4-0.6
				c0,0-0.1-0.1-0.1-0.1c0.1-0.2,0.1-0.5,0.1-0.7c0-0.1,0-0.2,0-0.2l-0.7-23.3c0-0.4-0.1-0.8-0.3-1.2l-6-13.5l3.7-50.6l6.6-0.2
				l18.5,66.9C241.1,364.9,241,365.5,240.9,366z"/>
		</g>
		<linearGradient id="SVGID_114_" gradientUnits="userSpaceOnUse" x1="401.3352" y1="628.5381" x2="235.7472" y2="117.6119">
			<stop  offset="0" style="stop-color:#003691"/>
			<stop  offset="0.5061" style="stop-color:#67C3F9"/>
			<stop  offset="0.6052" style="stop-color:#6AB4F2"/>
			<stop  offset="0.7963" style="stop-color:#738CDE"/>
			<stop  offset="0.9975" style="stop-color:#7D5CC6"/>
		</linearGradient>
		<path class="st113" d="M355.2,444.8h0.6l-6.4-12c-0.3-0.6-0.8-1.1-1.4-1.4l-15.3-7.5l-7.3-3.5l-8.6-4.2l-2.1-15.1
			c-0.2-1.2-1-2.2-2-2.6c2.3-2.1,4.2-4.7,5.6-7.6c2.8,1.1,6,0.6,8.5-1c1.5-1,2.5-2.3,3.3-3.8c0.5-0.9,0.9-1.6,1.7-2.3
			c0.8-0.6,1.5-1.2,2.2-2c1.1-1.4,1.8-3.3,1.7-5.1c0-1.1-0.5-2-0.7-3.1c-0.3-1.1,0.2-1.5,0.7-2.5c1.5-2.7,1.8-5.7,1.2-8.6
			c0.1-0.1,0.1-0.3,0.2-0.4c1.8-6.3,1.3-12.7,0.6-19.1c0-0.1,0-0.2,0-0.3l25.8-17c1.1-0.7,1.7-2,1.4-3.3c-0.3-1.6-1.8-2.7-3.4-2.5
			l-29.9,3.7c0,0,0,0,0,0l14.3-27.2c0.6-1.1,0.5-2.6-0.3-3.5c-1.1-1.3-2.9-1.5-4.2-0.6l-27.8,19.5c0,0,0,0,0,0l-6.9-32
			c-0.3-1.3-1.4-2.3-2.8-2.4c-1.4-0.1-2.7,0.7-3.1,2l-12,31.1c0,0,0,0,0,0l-2,0.5c0,0,0,0,0,0L260,290.6c-1.1-0.8-2.6-0.9-3.7,0
			c-1.1,0.8-1.5,2.3-1.1,3.6L266,323c0,0,0,0,0,0l-23.7-3.1c0,0-0.2,0-0.2,0c-4,1.6-2.1,4.8-1.1,6.7c0,0,0,0,0,0l1.1,1c0,0,0,0,0,0
			l16.4,12.7c-2.8,3.5-3.6,8.1-2.3,12.3l0,0.1c0.3,1.1,0.7,2.1,0.8,3.3c0.3,2.2-0.1,4.4-0.8,6.5c-0.8,2.4-1.1,4.3-0.1,6.7
			c0.7,1.7,1.6,3.5,3.1,4.6c0.7,0.5,1.8,1.1,2.7,1.1c0,0.3,0,0.5,0,0.5c0,3.8,1.1,7.3,3.7,10.1c1.2,1.3,2.9,2.6,4.6,3.2
			c0.9,0.3,1.9,0.3,2.8-0.3c0,0,0,0,0.1,0c0.1,0.1,0.1,0.1,0.2,0.2c0.3,0.3,0.7,0.6,1.2,0.9c4.1,9.2,12.5,15.5,22.3,15.5
			c4.2,0,8.1-1.2,11.6-3.2c0,0,0,0.1,0,0.1l2.3,16.8c0.1,1.1,0.8,2,1.8,2.5l31.7,15.5l4.3,8H355.2 M318.5,315.9l3.6-2.5l12.3-8.6
			l-7.9,15l-0.7,1.3l0,0c-0.2-0.1-0.3-0.3-0.5-0.4c-0.1-0.1-0.2-0.2-0.4-0.3c-0.2-0.1-0.3-0.3-0.5-0.4c-0.1-0.1-0.2-0.2-0.3-0.3
			c-0.2-0.2-0.4-0.3-0.6-0.5c-0.1-0.1-0.2-0.1-0.3-0.2c-0.3-0.2-0.6-0.4-0.9-0.7c0,0-0.1-0.1-0.1-0.1c-0.3-0.2-0.5-0.4-0.8-0.5
			c-0.1-0.1-0.2-0.1-0.3-0.2c-0.2-0.1-0.4-0.3-0.6-0.4c-0.1-0.1-0.3-0.1-0.4-0.2c-0.2-0.1-0.4-0.2-0.6-0.4c-0.1-0.1-0.3-0.1-0.4-0.2
			C318.9,316.2,318.7,316,318.5,315.9L318.5,315.9z M330.3,339.9L330.3,339.9l-1.1,0.6l0,0c-0.1-0.2-0.2-0.4-0.3-0.6
			c-0.1-0.1-0.2-0.3-0.2-0.5c-0.1-0.2-0.2-0.4-0.3-0.6c-0.1-0.1-0.2-0.3-0.2-0.4c-0.1-0.2-0.3-0.4-0.4-0.7c-0.1-0.1-0.1-0.2-0.2-0.3
			c-0.2-0.3-0.4-0.6-0.6-0.9c0,0,0-0.1-0.1-0.1c-0.2-0.3-0.5-0.6-0.7-0.9c-0.1-0.1-0.2-0.2-0.2-0.3c-0.2-0.2-0.3-0.4-0.5-0.6
			c-0.1-0.1-0.2-0.2-0.3-0.3c-0.2-0.2-0.3-0.4-0.5-0.5c-0.1-0.1-0.2-0.2-0.3-0.4c-0.2-0.2-0.3-0.3-0.5-0.5l0,0l0.4-0.4l1.8-1.8
			c0,0,0,0,0,0l0,0c0,0,0,0,0,0c0,0,0,0,0,0c0.1,0.2,0.3,0.4,0.4,0.6c0.1,0.2,0.2,0.3,0.3,0.5c0.1,0.2,0.3,0.4,0.4,0.6
			c0.1,0.2,0.2,0.3,0.3,0.5c0.1,0.2,0.2,0.4,0.4,0.7c0.1,0.1,0.2,0.3,0.2,0.4c0.1,0.3,0.3,0.5,0.4,0.8c0.1,0.1,0.1,0.2,0.2,0.3
			c0.2,0.4,0.3,0.8,0.5,1.2c0,0,0,0,0,0c0.2,0.4,0.3,0.8,0.4,1.2c0,0.1,0.1,0.2,0.1,0.3c0.1,0.3,0.2,0.6,0.3,0.9
			c0,0.2,0.1,0.3,0.1,0.5C330.1,339.4,330.2,339.6,330.3,339.9C330.3,339.9,330.3,339.9,330.3,339.9
			C330.3,339.9,330.3,339.9,330.3,339.9z M314.2,323.5l0.9-2.2l0,0c0,0,0,0,0,0c0,0,0,0,0,0c0.2,0.1,0.3,0.2,0.5,0.3
			c0.1,0.1,0.3,0.1,0.4,0.2c0.2,0.1,0.3,0.2,0.5,0.3c0.1,0.1,0.3,0.1,0.4,0.2c0.2,0.1,0.4,0.2,0.6,0.4c0.1,0.1,0.2,0.1,0.3,0.2
			c0.3,0.2,0.5,0.3,0.8,0.5c0,0,0.1,0,0.1,0.1c0.3,0.2,0.5,0.4,0.8,0.6c0.1,0.1,0.2,0.1,0.3,0.2c0.2,0.1,0.4,0.3,0.5,0.4
			c0.1,0.1,0.2,0.2,0.3,0.3c0.2,0.1,0.3,0.2,0.5,0.4c0.1,0.1,0.2,0.2,0.3,0.3c0.1,0.1,0.3,0.2,0.4,0.4c0,0,0,0,0,0c0,0,0,0,0,0l0,0
			l-0.9,0.9l-2.2,2.2h0l0,0c-0.1-0.1-0.3-0.2-0.4-0.3c-0.1,0-0.1-0.1-0.2-0.1c-0.1,0-0.2-0.1-0.2-0.1c-0.3-0.2-0.6-0.4-1-0.6
			c-0.2-0.1-0.3-0.2-0.5-0.3c-0.2-0.1-0.5-0.3-0.8-0.4c-0.2-0.1-0.4-0.2-0.5-0.3c-0.2-0.1-0.5-0.2-0.7-0.4c-0.2-0.1-0.4-0.2-0.6-0.3
			c-0.2-0.1-0.5-0.2-0.7-0.3L314.2,323.5z M308.2,318.6c0.2,0,0.3,0.1,0.5,0.1c0.2,0.1,0.4,0.1,0.6,0.2c0,0,0,0,0,0c0,0,0,0,0,0
			l-0.7,1.7l-1.4,3.6h0l0,0c-0.2,0-0.4-0.1-0.6-0.1c-0.1,0-0.2,0-0.3-0.1c-0.2,0-0.4-0.1-0.6-0.1c-0.1,0-0.2,0-0.3,0
			c-0.2,0-0.4-0.1-0.7-0.1c-0.1,0-0.1,0-0.2,0c-0.3,0-0.6-0.1-0.9-0.1c0,0,0,0-0.1,0c-0.3,0-0.5-0.1-0.8-0.1c-0.1,0-0.2,0-0.3,0
			c-0.2,0-0.4,0-0.6,0c-0.1,0-0.2,0-0.3,0c-0.2,0-0.4,0-0.5,0c-0.1,0-0.3,0-0.4,0c-0.2,0-0.3,0-0.5,0l-0.5-6.2c0,0,0,0,0,0
			c0,0,0,0,0,0c0.2,0,0.4,0,0.7,0c0.2,0,0.4,0,0.6,0c0.2,0,0.5,0,0.7,0.1c0.2,0,0.3,0,0.5,0c0.3,0,0.6,0.1,0.9,0.1
			c0.1,0,0.2,0,0.3,0c0.8,0.1,1.6,0.2,2.4,0.4c0.1,0,0.2,0,0.3,0.1c0.3,0.1,0.6,0.1,0.8,0.2c0.1,0,0.3,0.1,0.4,0.1
			C307.7,318.5,308,318.5,308.2,318.6z M295,311.1C295,311.1,295,311.1,295,311.1l7.2-18.6l0.5-1.3l0,0.1l0.2,1l4.2,19.6
			c-0.2,0-0.4-0.1-0.6-0.1c-0.2,0-0.3-0.1-0.5-0.1c-0.2,0-0.4-0.1-0.6-0.1c-0.2,0-0.3-0.1-0.5-0.1c-0.2,0-0.4-0.1-0.6-0.1
			c-0.2,0-0.3,0-0.5-0.1c-0.2,0-0.5-0.1-0.7-0.1c-0.2,0-0.3,0-0.5-0.1c-0.2,0-0.5,0-0.7-0.1c-0.1,0-0.3,0-0.4,0c-0.3,0-0.5,0-0.8,0
			c-0.1,0-0.2,0-0.4,0c-0.3,0-0.6,0-0.9,0c-0.1,0-0.2,0-0.2,0c-0.4,0-0.8,0-1.2,0c-0.5,0-1,0-1.4,0c-0.2,0-0.3,0-0.5,0
			C295.6,311.1,295.3,311.1,295,311.1L295,311.1z M284.6,319.6C284.6,319.6,284.6,319.6,284.6,319.6c0.2-0.1,0.4-0.1,0.5-0.2
			c0.2-0.1,0.3-0.1,0.5-0.2c0.2-0.1,0.4-0.1,0.6-0.2c0.2,0,0.3-0.1,0.5-0.2c0.2-0.1,0.5-0.1,0.7-0.2c0.1,0,0.3-0.1,0.4-0.1
			c0.4-0.1,0.7-0.2,1.1-0.3c0,0,0,0,0,0c0.4-0.1,0.8-0.2,1.1-0.2c0.1,0,0.2,0,0.2,0c0.3-0.1,0.6-0.1,0.9-0.2c0.1,0,0.3,0,0.4-0.1
			c0.3,0,0.5-0.1,0.8-0.1c0.1,0,0.3,0,0.4-0.1c0.2,0,0.5-0.1,0.7-0.1c0,0,0,0,0,0c0,0,0,0,0,0l0,0c0,0,0,0,0,0l0.5,6.5l0,0
			c-0.4,0.1-0.8,0.1-1.1,0.2c-0.2,0-0.4,0.1-0.6,0.1c-0.6,0.1-1.1,0.3-1.7,0.4c0,0-0.1,0-0.1,0c-0.5,0.1-1,0.3-1.5,0.5
			c-0.2,0.1-0.3,0.1-0.5,0.2c-0.4,0.1-0.7,0.2-1.1,0.4l0,0l-1.7-3.7L284.6,319.6L284.6,319.6C284.6,319.6,284.6,319.6,284.6,319.6z
			 M281.9,328.6c-0.3,0.2-0.5,0.3-0.8,0.5c-0.1,0.1-0.3,0.2-0.4,0.3c-0.4,0.3-0.7,0.5-1.1,0.8c0,0,0,0,0,0c-0.4,0.3-0.7,0.6-1.1,0.9
			c-0.1,0.1-0.2,0.2-0.3,0.3c-0.2,0.2-0.5,0.4-0.7,0.6l-5.2-4.1c0,0,0,0,0,0c0,0,0,0,0,0c0,0,0,0,0,0c0.1-0.1,0.3-0.3,0.4-0.4
			c0.1-0.1,0.2-0.2,0.3-0.4c0.2-0.2,0.3-0.3,0.5-0.5c0.1-0.1,0.2-0.2,0.3-0.3c0.2-0.2,0.5-0.5,0.7-0.7c0.1-0.1,0.2-0.2,0.3-0.2
			c0.2-0.2,0.4-0.3,0.6-0.5c0.1-0.1,0.2-0.2,0.4-0.3c0.2-0.1,0.3-0.3,0.5-0.4c0.1-0.1,0.3-0.2,0.4-0.3c0.2-0.1,0.3-0.2,0.5-0.4
			c0.1-0.1,0.3-0.2,0.4-0.3c0.2-0.1,0.3-0.2,0.5-0.3c0.1-0.1,0.3-0.2,0.4-0.3c0.2-0.1,0.3-0.2,0.5-0.3c0,0,0,0,0,0c0,0,0,0,0,0l0,0
			h0L281.9,328.6L281.9,328.6z M264.9,302.1l8.4,6.5l7.6,5.8c0,0,0,0,0,0l0,0c-0.2,0.1-0.4,0.2-0.7,0.3c-0.2,0.1-0.4,0.2-0.6,0.3
			c-0.2,0.1-0.4,0.2-0.7,0.3c-0.2,0.1-0.4,0.2-0.6,0.3c-0.2,0.1-0.5,0.2-0.7,0.4c-0.2,0.1-0.4,0.2-0.5,0.3c-0.3,0.2-0.6,0.3-0.8,0.5
			c-0.1,0.1-0.2,0.1-0.3,0.2c-0.4,0.2-0.8,0.5-1.2,0.7c-0.1,0.1-0.2,0.2-0.4,0.2c-0.3,0.2-0.5,0.3-0.8,0.5c-0.1,0.1-0.3,0.2-0.4,0.3
			c-0.2,0.2-0.5,0.3-0.7,0.5c-0.1,0.1-0.3,0.2-0.4,0.3c-0.2,0.2-0.4,0.3-0.6,0.5L264.9,302.1z M265.9,339.1c0.1-0.2,0.1-0.3,0.2-0.5
			c0-0.1,0.1-0.2,0.1-0.3c0.1-0.2,0.1-0.4,0.2-0.6c0-0.1,0-0.1,0.1-0.2c0.2-0.5,0.4-1.1,0.6-1.6c0-0.1,0.1-0.1,0.1-0.2
			c0.1-0.2,0.2-0.4,0.3-0.6c0-0.1,0.1-0.2,0.1-0.3c0.1-0.2,0.2-0.3,0.2-0.5c0-0.1,0.1-0.2,0.2-0.3c0.1-0.2,0.2-0.3,0.2-0.5
			c0.1-0.1,0.1-0.2,0.2-0.3c0.1-0.1,0.1-0.3,0.2-0.4c0,0,0,0,0,0c0,0,0,0,0,0l4.7,3.7c-0.1,0.1-0.2,0.3-0.3,0.4
			c-0.1,0.1-0.1,0.2-0.2,0.3c-0.1,0.1-0.2,0.3-0.3,0.4c-0.1,0.1-0.1,0.2-0.2,0.3c-0.1,0.2-0.2,0.4-0.3,0.6c0,0.1-0.1,0.1-0.1,0.2
			c-0.1,0.2-0.3,0.5-0.4,0.7c0,0.1-0.1,0.1-0.1,0.2c-0.1,0.2-0.2,0.3-0.3,0.5c0,0.1-0.1,0.2-0.1,0.3c-0.1,0.2-0.2,0.3-0.2,0.5
			c0,0.1-0.1,0.2-0.1,0.3c-0.1,0.2-0.1,0.3-0.2,0.5c0,0.1-0.1,0.2-0.1,0.3c-0.1,0.2-0.1,0.3-0.2,0.5l0,0c0,0,0,0,0,0l-1.9-1.5
			L265.9,339.1C265.9,339.1,265.9,339.1,265.9,339.1C265.9,339.1,265.9,339.1,265.9,339.1z M251.2,327.4
			C251.2,327.4,251.2,327.4,251.2,327.4L251.2,327.4L251.2,327.4l0.5,0l12,1.5l0,0c-0.2,0.3-0.3,0.6-0.5,0.9
			c-0.1,0.2-0.2,0.4-0.3,0.6c-0.2,0.4-0.4,0.8-0.6,1.2c0,0.1-0.1,0.2-0.1,0.2c-0.2,0.5-0.5,1-0.7,1.5c-0.1,0.2-0.1,0.3-0.2,0.5
			c-0.1,0.4-0.3,0.7-0.4,1.1l0,0c0,0,0,0,0,0L251.2,327.4z M271.9,383.5C271.9,383.5,271.9,383.5,271.9,383.5L271.9,383.5
			c0,0-0.1,0-0.2,0C271.8,383.4,271.9,383.4,271.9,383.5C272,383.5,272,383.5,271.9,383.5C272,383.5,272,383.5,271.9,383.5z
			 M272.1,387C272.1,387,272.1,387,272.1,387C272.1,387,272.1,387,272.1,387C272.1,387,272.1,387,272.1,387z M271.2,383.1
			c-0.2-0.1-0.4-0.2-0.6-0.4c-0.4-0.3-0.8-0.8-1.2-1.2c-0.8-1-1.4-2.2-1.7-3.4c-0.6-2.5,0.4-5.3-1.6-7.3c-0.5-0.5-1.1-0.9-1.8-1.2
			c-0.5-0.1-1.4,0-1.8-0.2c-0.6-0.3-1.5-2.6-1.6-3.2c-0.1-1.3,0.9-2.9,1.2-4.2c0.4-1.7,0.6-3.6,0.5-5.4c-0.1-1.6-2.1-7.1-2.7-8.9
			c0.2-1.7,0.9-3.4,2-4.8l4.9,3.8c-0.4,1.8-0.6,3.6-0.7,5.4c-0.2,2.6-0.2,5.6,1.8,7.6c0.8,0.7,1.6,1.2,2.5,1.4
			c0.2,0.7,0.4,1.4,0.6,2c0.5,1.2,1.2,1.6,0.9,2.9c-0.4,1.3-0.7,2.6-0.6,4c0.1,1.5,0.5,3,0.4,4.5c0,0.5,0,0.9,0.2,1.2
			c0,0.5,0,0.9,0,1.4c0,1.7,0.1,3.4,0.4,5.1C272,382.5,271.6,382.8,271.2,383.1z M274.3,353.8c-0.7,0.5-1.3,1-2,1.5
			c-0.1,0.1-0.3,0.2-0.5,0.4c0,0,0,0,0,0c0,0.1,0.1,0.2,0.1,0.3c-0.5,0.1-0.6,0-0.2-0.2c0,0,0.1,0,0.1-0.1c0,0,0,0,0,0
			c-0.8-2.4,0-5.8,0.6-8.2c0.2-0.8,0.4-1.6,0.6-2.3c4.2-9.6,14.6-16.5,26.8-16.5c10.5,0,19.7,5.1,24.7,12.6c-0.6,0.8-1,1.9-1,3
			c0,0.6,0.1,1.2,0.3,1.8c0.1,0.3,0.2,0.5,0.3,0.8c0,0.1,0,0.3,0.1,0.4c0.2,0.7,0.5,1.3,0.8,1.9c0.1,0.2,0.7,1.3,0.8,1.1
			c0-0.1,0-0.1,0-0.2c0,0.1,0,0.1,0,0.2c0,0.6-0.6,1.3-0.7,1.9c-0.2,0.8-0.2,1.6,0.1,2.4c0.2,0.6,0.6,1.2,1,1.6
			c0.3,0.2,0.6,0.5,0.9,0.7c0,0,0.1,0.1,0.2,0.1l0,0c0.1,0.1,0.1,0.1,0,0c-0.2,1-0.8,1.9-0.9,2.8c-0.2,1.2,0.3,2.3,0.4,3.3
			c-0.6,0-1.3,0-1.9,0c-0.7,0.1-2.5,0.2-3,0.6c0,0,0,0,0,0c-0.2-0.2-0.4-0.5-0.6-0.6c-0.3-0.3-0.6-0.5-1-0.7
			c-0.1-0.1-0.5-0.2-0.4-0.2c0,0.1,0,0.1,0,0.2c-0.5-0.4-0.5-0.5-0.1-0.2c0,0,0.1,0,0.1,0c-0.4-1.3-2.1-2-3.4-1.7c0,0,0,0,0,0
			c-0.1,0-0.1,0-0.2,0.1c0,0,0-0.1,0-0.1c-0.3-1.6-2.1-3-4.8-2.5c0,0-0.8,0.5-1.4,0.9c-0.3,0.2-0.6,0.4-0.8,0.5c0,0,0,0,0,0
			c-0.1,0-0.1,0.1-0.2,0.1c0,0-0.1,0-0.1,0c-0.1,0.1-0.2,0.1-0.4,0c-0.6-0.2-1.3-1.1-1.7-1.5c0,0-0.1-0.1-0.1-0.1
			c-0.9-0.9-1.9-1.7-3.1-2.2c-0.9-0.4-2.2-0.6-3-1.1c0,0,0,0,0,0c-0.1,0-0.1-0.1-0.2-0.1c-0.7-0.6-0.9-1.6-1.6-2.3
			c-1-1-2.2-1.1-3.5-1.2c-0.7-0.1-0.1,0.2-1-0.4c-0.5-0.3-1-0.6-1.6-0.7c-0.2,0-0.4-0.1-0.5-0.1c-1.3-0.2-2.6,0.2-3.8,0.7
			c-0.4,0.2-0.9,0.5-1.3,0.8c-0.6,0.4-1.2,0.8-1.8,0.9c0,0,0,0-0.1,0c-1.3,0.2-2.8-0.5-4.1-0.7c-1.3-0.1-2.6,0-3.9,0.4
			C276.6,352.5,275.4,353.1,274.3,353.8z M327.1,363.4c0,0.3,0.1,0.6,0,0.9c0,0,0,0,0,0C327.2,364,327.2,363.7,327.1,363.4z
			 M296.8,354.3C296.8,354.3,296.8,354.3,296.8,354.3C296.8,354.3,296.8,354.3,296.8,354.3C296.8,354.3,296.8,354.3,296.8,354.3z
			 M295.8,354.3c0,0-0.1,0-0.1,0c-0.3,0-0.6,0-1,0.1c0.3,0,0.6-0.1,1-0.1C295.8,354.3,295.8,354.3,295.8,354.3z M331.7,369.6
			c-0.8,1.3-1.3,2.6-1.1,4.1c0.2,1.7,1.3,3,0.6,4.7c-0.6,1.4-2,2-3,3c-1.1,1.1-1.6,2.6-2.5,3.8c-1.3,1.7-3.7,2.6-5.7,1.8
			c0.2-0.6,0.4-1.3,0.6-1.9c0.5-1.9,0.8-4,1-6.1c-0.9,0.6-2.1,0.7-3.2,0.6c-0.6-0.1-1.2,0.2-1.7,0.6c-0.1,1.2-0.4,2.4-0.7,3.6
			c-2.5,9.5-10.1,16.5-19.2,16.5c-6.8,0-12.7-3.9-16.4-9.8c-1-1.6-1.8-3.5-2.5-5.4c-0.8-2.5-1.2-5.1-1.2-7.9c0-0.4,0-0.7,0-1.1
			c0-1.2,0.2-2.4,0.4-3.5l0.5-8c-0.1-1.3-0.8-2.1-1.3-3.2c-0.1-0.3-0.2-0.5-0.3-0.8c-0.1-0.3-0.2-0.6-0.3-0.9
			c1.2-0.9,2.4-1.9,3.7-2.4c0.6-0.2,1.2-0.3,1.8-0.2c1.8,0.2,3.3,0.6,5,0.6c0.9,0,1.8-0.3,2.8-0.8c0.8-0.4,1.8-1.5,2.7-1.6
			c0.1,0,0.1,0,0.2,0c0,0-0.1,0-0.1,0c0,0,0,0,0,0h0c0,0,0.1,0,0.1,0c0,0,0,0,0,0c0.2,0.1,0.5,0.4,0.6,0.5c0.6,0.3,1.1,0.6,1.8,0.7
			c0.3,0.1,0.7,0.1,1,0.1c0,0,0.1,0,0.2,0c0.1,0.2,0.1,0.3,0.2,0.4c0.6,1,1.4,1.8,2.4,2.4c1.1,0.6,2.3,0.9,3.4,1.3
			c1,0.4,1.7,1.3,2.5,2c2.1,2,5.1,3.3,7.8,1.8c2.2,1.1,4.8,2.1,5.5,2.6c0.8,0.5,1.3,1.5,2.3,1.9c0.4,0.2,0.7,0.3,1.1,0.4
			c1,0.2,2,0.1,3.1-0.1c-0.2,1.1-0.2,2.2-0.2,3.3c0,1.9,0.3,4.1-1,5.6c-0.3,0.3-0.6,0.6-0.9,0.8c-0.1,2.1-0.4,4.1-1,6.1
			c2.6-0.3,5-1.8,6.6-4c2.4-3.3,1.4-7,1.9-10.7c0.2-1.4,0.6-2.1,1.7-2.9c1.4-1.2,1.9-2.5,1.8-4.1c0,0,0.1,0.1,0.1,0.1
			C333.1,365.5,332.9,367.5,331.7,369.6z M332.9,355c-0.2-0.5-0.5-1-0.9-1.5c0,0-0.1-0.1-0.1-0.1c0-1.8-0.1-5.4-0.4-7c0,0,0,0,0,0
			l1.1-0.6C332.9,348.8,333.1,351.9,332.9,355z M335.8,336.6c-0.1-0.2-0.1-0.4-0.2-0.5c0-0.1-0.1-0.3-0.1-0.4
			c-0.1-0.2-0.1-0.4-0.2-0.5c0-0.1-0.1-0.2-0.1-0.3c-0.1-0.2-0.2-0.4-0.2-0.6c0-0.1-0.1-0.2-0.1-0.3c-0.1-0.3-0.2-0.6-0.3-0.9
			c0-0.1,0-0.1-0.1-0.2c-0.1-0.2-0.2-0.5-0.3-0.7c0-0.1-0.1-0.2-0.1-0.3c-0.1-0.2-0.2-0.4-0.3-0.5c-0.1-0.1-0.1-0.2-0.2-0.3
			c-0.1-0.2-0.2-0.3-0.2-0.5c-0.1-0.1-0.1-0.2-0.2-0.4c-0.1-0.2-0.2-0.3-0.2-0.5l0,0l16-2l0.1,0L335.8,336.6z"/>
		<linearGradient id="SVGID_115_" gradientUnits="userSpaceOnUse" x1="444.6785" y1="614.4908" x2="279.0905" y2="103.5646">
			<stop  offset="0" style="stop-color:#003691"/>
			<stop  offset="0.5061" style="stop-color:#67C3F9"/>
			<stop  offset="0.6052" style="stop-color:#6AB4F2"/>
			<stop  offset="0.7963" style="stop-color:#738CDE"/>
			<stop  offset="0.9975" style="stop-color:#7D5CC6"/>
		</linearGradient>
		<path class="st114" d="M426.8,486.8c-0.1-0.9-0.6-1.8-1.4-2.3l-33.8-22.8c-1.3-0.9-3.1-0.7-4.2,0.4l-11.6,12l2.1,7.2l12.3-12.8
			l28.5,19.2c-0.6,0.7-1.3,1.4-2,2.2c-0.1,0.1-0.2,0.2-0.3,0.3c-0.2,0.2-0.3,0.3-0.5,0.5c-0.2,0.2-0.4,0.4-0.6,0.6
			c-0.1,0.1-0.1,0.1-0.2,0.2c-0.1,0.2-0.3,0.3-0.5,0.5c-0.1,0.1-0.3,0.3-0.4,0.4c-0.2,0.2-0.3,0.4-0.5,0.5c-0.1,0.1-0.2,0.3-0.3,0.4
			c-0.2,0.2-0.4,0.4-0.6,0.7c-0.1,0.1-0.2,0.2-0.3,0.3c-0.2,0.2-0.4,0.5-0.6,0.7c-0.1,0.1-0.2,0.2-0.2,0.3c-0.2,0.3-0.5,0.5-0.7,0.8
			c-0.1,0.1-0.1,0.1-0.2,0.2c-0.3,0.3-0.6,0.6-0.8,0.9c0,0,0,0-0.1,0.1c-0.3,0.3-0.5,0.6-0.8,0.9c0,0-0.1,0.1-0.1,0.1
			c-0.3,0.3-0.5,0.6-0.8,0.9c0,0-0.1,0.1-0.1,0.1c-0.3,0.3-0.5,0.6-0.8,0.8c0,0.1-0.1,0.1-0.1,0.2c-0.3,0.3-0.5,0.6-0.8,0.8
			c0,0-0.1,0.1-0.1,0.1c-0.2,0.3-0.5,0.5-0.7,0.8c0,0-0.1,0.1-0.1,0.1l0,0l-3.6,4h8.7c6.7-7.4,15.3-16.9,15.3-17
			C426.6,488.7,426.9,487.7,426.8,486.8z"/>
		<linearGradient id="SVGID_116_" gradientUnits="userSpaceOnUse" x1="413.956" y1="624.4478" x2="248.368" y2="113.5216">
			<stop  offset="0" style="stop-color:#003691"/>
			<stop  offset="0.5061" style="stop-color:#67C3F9"/>
			<stop  offset="0.6052" style="stop-color:#6AB4F2"/>
			<stop  offset="0.7963" style="stop-color:#738CDE"/>
			<stop  offset="0.9975" style="stop-color:#7D5CC6"/>
		</linearGradient>
		<path class="st115" d="M381.7,524.6c-0.2-0.3-0.4-0.6-0.6-0.9C381.3,523.9,381.5,524.2,381.7,524.6z"/>
		<linearGradient id="SVGID_117_" gradientUnits="userSpaceOnUse" x1="414.3559" y1="624.3181" x2="248.7679" y2="113.392">
			<stop  offset="0" style="stop-color:#003691"/>
			<stop  offset="0.5061" style="stop-color:#67C3F9"/>
			<stop  offset="0.6052" style="stop-color:#6AB4F2"/>
			<stop  offset="0.7963" style="stop-color:#738CDE"/>
			<stop  offset="0.9975" style="stop-color:#7D5CC6"/>
		</linearGradient>
		<path class="st116" d="M382.8,525.9c-0.4-0.5-0.7-0.9-1.1-1.4C382,525,382.4,525.5,382.8,525.9z"/>
		<linearGradient id="SVGID_118_" gradientUnits="userSpaceOnUse" x1="427.8581" y1="619.9422" x2="262.2701" y2="109.0159">
			<stop  offset="0" style="stop-color:#003691"/>
			<stop  offset="0.5061" style="stop-color:#67C3F9"/>
			<stop  offset="0.6052" style="stop-color:#6AB4F2"/>
			<stop  offset="0.7963" style="stop-color:#738CDE"/>
			<stop  offset="0.9975" style="stop-color:#7D5CC6"/>
		</linearGradient>
		<path class="st117" d="M398.1,525.7c-0.4,0.4-0.8,0.7-1.2,0.9C397.3,526.4,397.7,526.1,398.1,525.7z"/>
		<linearGradient id="SVGID_119_" gradientUnits="userSpaceOnUse" x1="430.2272" y1="619.1744" x2="264.6392" y2="108.2481">
			<stop  offset="0" style="stop-color:#003691"/>
			<stop  offset="0.5061" style="stop-color:#67C3F9"/>
			<stop  offset="0.6052" style="stop-color:#6AB4F2"/>
			<stop  offset="0.7963" style="stop-color:#738CDE"/>
			<stop  offset="0.9975" style="stop-color:#7D5CC6"/>
		</linearGradient>
		<path class="st118" d="M395.3,507.6c-1.5,1.3-2.8,2.9-4.1,4.6l6.7-5.9C397.2,506.3,396.3,506.7,395.3,507.6z"/>
	</g>
	<g>
		<linearGradient id="SVGID_120_" gradientUnits="userSpaceOnUse" x1="380.5022" y1="635.2899" x2="214.9142" y2="124.3637">
			<stop  offset="0" style="stop-color:#003691"/>
			<stop  offset="0.5061" style="stop-color:#67C3F9"/>
			<stop  offset="0.6052" style="stop-color:#6AB4F2"/>
			<stop  offset="0.7963" style="stop-color:#738CDE"/>
			<stop  offset="0.9975" style="stop-color:#7D5CC6"/>
		</linearGradient>
		<path class="st119" d="M357.9,572.6c3.4,0.3,6.2-2.5,5.8-5.9c-0.3-2.5-2.3-4.5-4.8-4.7c-3.4-0.3-6.2,2.5-5.8,5.9
			C353.4,570.3,355.4,572.4,357.9,572.6z"/>
		<linearGradient id="SVGID_121_" gradientUnits="userSpaceOnUse" x1="340.4822" y1="648.2602" x2="174.8941" y2="137.334">
			<stop  offset="0" style="stop-color:#003691"/>
			<stop  offset="0.5061" style="stop-color:#67C3F9"/>
			<stop  offset="0.6052" style="stop-color:#6AB4F2"/>
			<stop  offset="0.7963" style="stop-color:#738CDE"/>
			<stop  offset="0.9975" style="stop-color:#7D5CC6"/>
		</linearGradient>
		<path class="st120" d="M330,599.8c-0.3-0.9-0.4-1.3-0.6-1.8c-2.5-8.3-4.9-16.6-7.3-24.9c-0.3-1-0.6-1.4-1.7-1.3
			c-2.8,0.3-5.6,0.6-8.5,0.8c-0.9,0.1-1.3,0.4-1.5,1.3c-1.1,4-2.3,8-3.4,12c-1.3,4.4-2.6,8.9-3.8,13.3c-0.1,0-0.2,0-0.3,0
			c-2.2-11.3-4.3-22.6-6.5-33.9c-3.8,0-7.5,0-11.3,0.1c3.7,16.7,7.3,33.3,11,49.8c4.2,0,8.2,0,12.3-0.1c2.6-8.8,5.1-17.6,7.8-26.7
			c0.4,1.2,0.6,2,0.9,2.7c2.4,7.5,4.8,15,7.2,22.6c0.2,0.5,0.7,1.3,1,1.3c3.9,0.1,7.8,0,11.7,0c3.5-16.8,6.9-33.4,10.4-50
			c-3.8,0-7.5,0-11.3,0.1C334,576.6,332.1,588,330,599.8z"/>
		<linearGradient id="SVGID_122_" gradientUnits="userSpaceOnUse" x1="285.9422" y1="665.9362" x2="120.3542" y2="155.01">
			<stop  offset="0" style="stop-color:#003691"/>
			<stop  offset="0.5061" style="stop-color:#67C3F9"/>
			<stop  offset="0.6052" style="stop-color:#6AB4F2"/>
			<stop  offset="0.7963" style="stop-color:#738CDE"/>
			<stop  offset="0.9975" style="stop-color:#7D5CC6"/>
		</linearGradient>
		<path class="st121" d="M278.7,565.5c-3.8,0-7.4,0-11.2,0.1c0,0.7,0,1.4,0,2c0.1,9.9,0.1,19.9,0.2,29.8c0,1,0,1.9-0.1,2.9
			c-0.4,2.8-1.6,5.1-4.5,6.1c-6.6,2.4-11.8-1.1-11.9-8.1c0-0.5,0-1,0-1.4c-0.1-9.8-0.1-19.6-0.2-29.3c0-0.6,0-1.2,0-1.9
			c-3.8,0-7.4,0-11.1,0.1c-0.1,0.2-0.1,0.3-0.1,0.4c0.1,11.4,0,22.8,0.3,34.1c0.2,8,5.4,13.8,13.2,15.4c3.2,0.6,6.6,0.7,9.9,0.4
			c6.2-0.5,11.1-3.3,13.9-9.1c1.4-2.9,1.9-6.1,1.9-9.3c-0.1-10.2-0.1-20.3-0.2-30.5C278.8,566.7,278.7,566.1,278.7,565.5z"/>
		<linearGradient id="SVGID_123_" gradientUnits="userSpaceOnUse" x1="243.2908" y1="679.7593" x2="77.7028" y2="168.8331">
			<stop  offset="0" style="stop-color:#003691"/>
			<stop  offset="0.5061" style="stop-color:#67C3F9"/>
			<stop  offset="0.6052" style="stop-color:#6AB4F2"/>
			<stop  offset="0.7963" style="stop-color:#738CDE"/>
			<stop  offset="0.9975" style="stop-color:#7D5CC6"/>
		</linearGradient>
		<path class="st122" d="M227.3,603.3c-3.4,2.6-7.3,4-11.6,3.9c-6-0.2-9.9-3.4-11.2-9.2c-0.9-4.2-1.1-8.4-0.4-12.6
			c0.7-4,2.2-7.5,5.9-9.5c2.6-1.4,5.4-1.5,8.3-1.3c3.4,0.3,6.2,1.9,8.9,4c1.8-2.4,3.6-4.7,5.6-7.2c-0.4-0.3-0.6-0.4-0.8-0.6
			c-0.4-0.3-0.7-0.6-1.1-0.9c-5.5-4.2-11.8-5.2-18.5-4.7c-9.6,0.7-16.9,6.7-19.3,16c-1.5,5.8-1.6,11.7-0.4,17.6
			c1.5,7.7,5.4,13.8,13.1,16.4c6.5,2.2,13,2,19.5-0.2c3.2-1.1,6-2.9,8.4-5.3c-1.8-2.5-3.5-4.8-5.3-7.2
			C228,602.8,227.6,603,227.3,603.3z"/>
		<linearGradient id="SVGID_124_" gradientUnits="userSpaceOnUse" x1="372.0561" y1="638.0272" x2="206.4681" y2="127.101">
			<stop  offset="0" style="stop-color:#003691"/>
			<stop  offset="0.5061" style="stop-color:#67C3F9"/>
			<stop  offset="0.6052" style="stop-color:#6AB4F2"/>
			<stop  offset="0.7963" style="stop-color:#738CDE"/>
			<stop  offset="0.9975" style="stop-color:#7D5CC6"/>
		</linearGradient>
		<path class="st123" d="M353.3,578.2c0.1,12.3,0.1,24.5,0.2,36.7c3.6,0,7,0,10.4-0.1c-0.1-12.3-0.1-24.4-0.2-36.7
			C360.1,578.2,356.7,578.2,353.3,578.2z"/>
		<linearGradient id="SVGID_125_" gradientUnits="userSpaceOnUse" x1="401.1245" y1="628.6064" x2="235.5364" y2="117.6802">
			<stop  offset="0" style="stop-color:#003691"/>
			<stop  offset="0.5061" style="stop-color:#67C3F9"/>
			<stop  offset="0.6052" style="stop-color:#6AB4F2"/>
			<stop  offset="0.7963" style="stop-color:#738CDE"/>
			<stop  offset="0.9975" style="stop-color:#7D5CC6"/>
		</linearGradient>
		<path class="st124" d="M393,565.1c-6.1-0.3-12.3-0.2-18.4-0.2c-0.4,0-0.8,0.1-1.3,0.1c0.1,16.7,0.2,33.3,0.3,49.8
			c3.8,0,7.4,0,11.2-0.1c0-6-0.1-12-0.1-18.1c0.9,0,1.8,0,2.6,0c2.4-0.1,4.9-0.1,7.3-0.5c8.5-1.5,13.4-8,12.9-16.7
			C407.2,571.4,401.4,565.5,393,565.1z M395.4,583.9c-0.3,1.9-1.8,3.1-3.7,3.3c-2.3,0.2-4.6,0.1-7,0.1c0-4.3,0-8.5-0.1-12.8
			c2.5,0,4.9-0.2,7.2,0c1.9,0.2,3.3,1.5,3.6,3.4C395.7,579.9,395.7,582,395.4,583.9z"/>
	</g>
	<linearGradient id="SVGID_126_" gradientUnits="userSpaceOnUse" x1="320.9337" y1="654.5957" x2="155.3457" y2="143.6695">
		<stop  offset="0" style="stop-color:#003691"/>
		<stop  offset="0.5061" style="stop-color:#67C3F9"/>
		<stop  offset="0.6052" style="stop-color:#6AB4F2"/>
		<stop  offset="0.7963" style="stop-color:#738CDE"/>
		<stop  offset="0.9975" style="stop-color:#7D5CC6"/>
	</linearGradient>
	<path class="st125" d="M419.4,541.8v-7.3H418v-8.9h-7.3v1l-1.8-0.6v-15.3h-4.7v-0.1h-2.5v0.1h-1.9v10.8h-1v-13.3v-2.9V502h-1.2
		v-1.8h-0.6c-0.7-2.8-3.2-4.9-6.2-4.9c-2.6,0-4.9,1.6-5.9,3.9v-10H384v-1.3h-4.2v1.3h-0.8V503v3.8v17h-0.1v-4.6v-3.5h-3.4v-16.6
		L375,497l-0.6,2.1h0v-12.2l-0.6-2.1l-0.4,1.3l-2.9-8.6l-2.8,8.6l-0.4-1.3l-0.6,2.1v12.2h0l-0.6-2.1l-0.6,2.1v0.2h0v0.7h0v15.8h-1.8
		l0-0.3l-0.1-3.5l0-0.9l0-1.3l0-0.9l0-1.3l0-0.9l0-1.3l0-0.9l0-1.3l0-0.9l0-1.3l0-0.9l0-1.3l0-0.9l0-1.3l0-0.9l-0.2-5.7l0-0.9
		l-0.1-3.5l0-0.9l0-1.3l0-0.9l-0.1-3.5l0-0.9l0-1.3l0-0.9l-0.1-3.5l0-0.9l0-1.3l0-0.9l0-1.3l0-0.9l-0.3-10.2l0-0.9l0-1.3l0-0.9
		l0-1.3l0-0.9l0-1.7h-6.7v-0.2l0,0.2h-6.7l0,1.7l0,0.9l0,1.3l0,0.9l0,1.3l0,0.9l0,1.3l0,0.9l0,1.3l0,0.9l0,1.3l0,0.9l0,1.3l0,0.9
		l0,1.3l0,0.9l0,1.3l0,0.9l0,1.3l0,0.9l0,1.3l0,0.9l0,1.3l0,0.9l0,1.3l0,0.9l0,1.3l0,0.9l0,1.3l0,0.9l0,1.3l0,0.9l0,1.3l0,0.9l0,1.3
		l0,0.9l0,1.3h0l0,0.9l0,1.3l0,0.9l0,1.3l0,0.9l0,1.3l0,0.9l0,1.3l0,0.9l0,1.3l0,0.9l0,1.3l0,0.9l0,1.3l0,0.9l0,1.3l0,0.9l0,0.2
		h-3.4v-3.7v-3.1v-2.7h-1.1v-2.1h0l-7.1-3.6l-7.1,3.6h0v2.1h-1.1v2.7v3.1v19.3h-2v3.6l-1.4-0.5V504l-0.5-2.7h-0.7H318h-0.7l-0.5,2.7
		v7.9h-1.4v1.2h-3.7v-19.8h-1.2v-2.9h-1.2v-3.4h-1.1l-0.4,0.3h-0.9v0.7l-8.5,7.1h-1.6v3.9v1.2v0.6l0,0v1v0.6v1v0.6v1v0.6v1v0.6v1
		v0.6v1v0.6v1v0.6v1v0.6v1v0.6v1v0.6v1v0.4h-2.9v3.1h-2.4l0-0.4l0-0.9v-1.1l0-0.9l0-1.1v-0.9l0-1.1v-0.9l0-1.1l0-0.9v-1.2l0-0.9
		l0-1.1v-0.9l0-1.1v-0.9l0-1.1l0-0.9v-1.1l0-0.9l0-1.1v-0.9l0-1.1l0-0.9v-1.1l0-0.9v-1.1l0-0.9l0-1.1v-0.9l0-1.1l0-0.9v-1.1l0-0.9
		l0-1.1v-0.9l0-1.1v-0.9l0-4.2l-4.6,2.3l-0.5-20.2h-0.3l-1,21.1l0,0l-2.1,1l-1.8,0.9l-0.7,0.4l-0.2,0.8L280,487l-0.1,0.5l-0.1,0.6h0
		l0.1-0.6l-2-0.5l-1.4-0.3l0,0.3l0,1.1l0,0.9l0,1.1l0,0.9l0,1.1l0,0.9l0,1.1l0,0.9l0,1.1l0,0.9l0,1.1l0,0.9l0,1.1l0,0.9l0,1.1l0,0.2
		h-2.7v4.1h-3.9v16.3H266v-42.9h-0.8v-9.7h-1.6v-7.2h-1.4v-1.8h-1.6v-1.4h-0.8l-1.6-12.5h-0.4v-1.7h-1.3v1.7h-0.3l-1.6,12.5h-1v1.4
		H252v1.8h-1.4v7.2h-1.7v9.7h-0.8v36h-5.4V511h-6.2v5.1h-2.3v1.7h-3v-1h-0.5v-2.3h-0.9V501h-0.5v-6.4h-1v-0.8v-1.8h-0.6c0,0,0,0,0,0
		v-2.2V488h-0.6v-3.4h-0.4c0,0,0,0,0,0v-1.4c0-0.6-0.2-1.2-0.6-1.5v-1.4h0l-0.8-9.6v-1.9h-0.3v2.2l-0.7,9c0,0.1,0,0.2,0,0.3v1.4
		c-0.4,0.3-0.6,0.9-0.6,1.5v1.4c0,0,0,0,0,0h-0.4v1.3v2.1h-0.6v1.4c0,0.1,0,0.2,0,0.3v2.2c0,0,0,0,0,0h-0.6v2.6h-0.9v6.4h-0.5v15.9
		h-1.5v3.4h-1.1v3.5h-6.2v-11.6h-2v-2.6h-1.1V509h-4.2v0.6h-1.1v2.6h-2v13.3h0v1.2h-1v8.1h-1.6v-2.4h-0.4v-0.1v-3.9h-0.4v-2.8h0l0,0
		v-0.3l-0.1-0.2l-1-7.2v-0.7h-0.1l-0.6-4.7v-1.2h-0.3v1.2l-0.6,4.7h-0.1v0.7h0l-1,7.1l-0.1,0.2h0v0.3l0,0.1h0v2.8h-0.4v3.5l-2.2-3.4
		v-1.2h0.4v-0.3h-0.4v-0.4h-0.3v0.4h-0.4v0.3h0.4v1.3l-2.2,3.4v-3.6h-0.4v-2.8h0l0-0.1v-0.3h0l-0.1-0.2l-1-7.1h0v-0.7h-0.1l-0.6-4.7
		v-1.2h-0.3v1.2l-0.6,4.7h-0.1v0.7l-1,7.2l-0.1,0.2v0.3l0,0h0v2.8H184v3.2h-3v9h-0.4v1.4h-6.5v95h251.4v-95H419.4z M288.4,485.4
		l-0.3,0.7h0L288.4,485.4z M287.8,487L287.8,487l-0.5,1.1h0L287.8,487z M287,489.1L287,489.1l-0.4,1.1h0L287,489.1z M285.4,493.1
		L285.4,493.1l-0.5,1.1h0L285.4,493.1z M284.6,495.1L284.6,495.1l-0.4,1.1h0L284.6,495.1z M283.7,497.3l-0.4,1h0L283.7,497.3z
		 M283,499.1L283,499.1l-0.1,0.2L283,499.1z M282.2,501.2L282.2,501.2l-0.5,1.1h0L282.2,501.2z M281.1,503.9l0.1-0.3L281.1,503.9
		L281.1,503.9z M279.6,489.1L279.6,489.1l-0.1,0.4L279.6,489.1z M279.3,491.7l-0.1,0.6h0L279.3,491.7z M278.8,495.1L278.8,495.1
		l-0.2,1.1h0L278.8,495.1z M278.5,497.3l-0.1,1h0L278.5,497.3z M278.2,499.1L278.2,499.1l-0.2,1.1L278.2,499.1z M277.9,501.7
		l-0.1,0.6h0L277.9,501.7z M182.4,629.5l-0.5-79l235.2-1.4l0.5,79L182.4,629.5z"/>
</g>
<rect x="172.8" y="645.5" class="st127" width="256" height="16"/>
<text transform="matrix(1 0 0 1 172.8363 656.437)" class="st128 st129">Barnard College  |  Columbia University  </text>
<text transform="matrix(1 0 0 1 225.1219 675.1504)" class="st128 st129">City College of New York</text>
</svg>
